<?xml version="1.0" standalone="no"?>
<!DOCTYPE svg PUBLIC "-//W3C//DTD SVG 1.1//EN" "http://www.w3.org/Graphics/SVG/1.1/DTD/svg11.dtd" >
<svg xmlns="http://www.w3.org/2000/svg">
<metadata></metadata>
<defs>
<font id="ancillarybold_italic" horiz-adv-x="522" >
<font-face units-per-em="2048" ascent="1638" descent="-410" />
<missing-glyph horiz-adv-x="593" />
<glyph unicode="&#xfb01;" horiz-adv-x="1396" d="M94 0l152 788h-111l68 236h90l16 82q18 96 48 171.5t66 126.5t83 85t95.5 52t109 24t116.5 2.5t125 -13.5v-225q-83 21 -146 23.5t-107.5 -11t-75.5 -46.5t-49.5 -78.5t-30.5 -110.5l-17 -82h312l-68 -236h-291q-8 -43 -22 -119t-45 -239t-82 -430h-236zM901 0l195 993 l243 51l-202 -1044h-236zM1143 1317q11 56 56.5 94.5t100.5 38.5q56 0 87.5 -39t21.5 -94t-57 -94t-103 -39q-55 0 -86 38.5t-20 94.5z" />
<glyph horiz-adv-x="2048" />
<glyph horiz-adv-x="2048" />
<glyph unicode="&#xd;" horiz-adv-x="2048" />
<glyph unicode=" "  horiz-adv-x="593" />
<glyph unicode="&#x09;" horiz-adv-x="593" />
<glyph unicode="&#xa0;" horiz-adv-x="593" />
<glyph unicode="!" horiz-adv-x="561" d="M70 119q10 55 56.5 94t102.5 39q55 0 86.5 -38.5t20.5 -94.5q-11 -54 -58 -93.5t-102 -39.5t-86 39.5t-20 93.5zM174 410l168 1126h274l-270 -1126h-172z" />
<glyph unicode="&#x22;" horiz-adv-x="661" d="M207 1260l180 419h256l-242 -419h-194zM535 1260l180 419h256l-242 -419h-194z" />
<glyph unicode="#" horiz-adv-x="1366" d="M-61 297l100 235h260l107 256h-263l101 236h260l123 297h243l-122 -297h235l123 297h242l-123 -297h262l-98 -236h-263l-106 -256h262l-98 -235h-262l-123 -297h-242l123 297h-236l-122 -297h-244l123 297h-262zM543 532h235l107 256h-236z" />
<glyph unicode="$" horiz-adv-x="1224" d="M92 80v266q172 -95 354 -123l89 459q-42 11 -107 35q-122 45 -178 152t-31 241q22 112 71.5 196t117.5 133.5t139.5 76t154.5 36.5l29 148h236l-31 -154q148 -21 297 -90v-266q-157 88 -342 121l-88 -461q19 -6 51.5 -17t42.5 -14q119 -41 176.5 -150t32.5 -243 q-17 -88 -52.5 -159.5t-80.5 -119t-102.5 -82t-114.5 -52.5t-121 -27l-29 -150h-235l28 152q-161 22 -307 92zM455 1110q-21 -112 127 -182l73 383q-166 -38 -200 -201zM682 227q156 41 188 199q19 108 -116 174z" />
<glyph unicode="%" horiz-adv-x="1589" d="M78 0l1274 1536h276l-1272 -1536h-278zM211 1171q31 158 152.5 263.5t277.5 105.5t237 -105.5t50 -263.5t-152.5 -263t-277.5 -105t-237 105t-50 263zM446 1171q-11 -56 17.5 -94.5t79.5 -38.5t95 39t54 94q11 56 -17 95t-79 39t-95.5 -39.5t-54.5 -94.5zM760 348 q31 158 152.5 263.5t277.5 105.5t237 -105.5t50 -263.5t-152.5 -263t-277.5 -105t-237 105t-50 263zM995 348q-11 -56 17.5 -94.5t79.5 -38.5t95 39t54 94q11 56 -17 94.5t-79 38.5t-95.5 -39t-54.5 -94z" />
<glyph unicode="&#x26;" horiz-adv-x="1327" d="M51 356q25 129 131 256t236 201q-113 194 -80 363q31 158 158.5 269t283.5 111t241 -111t54 -269q-9 -32 -23.5 -63t-40 -64.5t-44 -56.5t-57 -59t-55 -51t-62.5 -55t-56 -49l166 -284q52 54 123 249l205 -71q-31 -87 -96 -202t-115 -171l174 -299h-301l-70 121 q-84 -68 -187.5 -109t-207.5 -41q-197 0 -304.5 100t-72.5 285zM287 356q-8 -44 6 -75.5t46 -47.5t69.5 -23t83.5 -7q44 0 111.5 22t117.5 68l-199 344q-109 -74 -164 -136.5t-71 -144.5zM573 1178q-8 -48 11.5 -114.5t46.5 -105.5q196 145 209 218q11 60 -18.5 102.5 t-86.5 42.5q-56 0 -103 -42t-59 -101z" />
<glyph unicode="'" horiz-adv-x="333" d="M207 1260l180 419h256l-242 -419h-194z" />
<glyph unicode="(" horiz-adv-x="540" d="M63 139.5q-19 276.5 33.5 557t176 557t300.5 487.5h213q-159 -203 -274 -482t-167.5 -562.5t-42 -562t90.5 -482.5h-215q-96 211 -115 487.5z" />
<glyph unicode=")" horiz-adv-x="538" d="M-188 -348q160 204 278 482.5t175.5 562t50.5 562t-87 482.5h213q96 -211 112 -487.5t-40.5 -557t-183 -557t-303.5 -487.5h-215z" />
<glyph unicode="*" horiz-adv-x="968" d="M213 1053l203 104l-162 105l129 170l162 -105l41 209h194l-41 -209l203 105l64 -170l-201 -105l160 -104l-129 -170l-162 104l-41 -209h-195l41 209l-203 -104z" />
<glyph unicode="+" horiz-adv-x="1183" d="M59 494l45 235h412l80 412h235l-79 -412h411l-45 -235h-411l-80 -412h-236l80 412h-412z" />
<glyph unicode="," horiz-adv-x="471" d="M-160 -201l246 420h276l-307 -420h-215z" />
<glyph unicode="-" horiz-adv-x="821" d="M80 494l45 235h655l-45 -235h-655z" />
<glyph unicode="." horiz-adv-x="512" d="M29 131q12 63 65 108.5t117 45.5q63 0 100 -45.5t25 -108.5q-12 -64 -66.5 -109t-117.5 -45q-64 0 -99.5 44.5t-23.5 109.5z" />
<glyph unicode="/" horiz-adv-x="878" d="M-82 -117l936 1755h248l-934 -1755h-250z" />
<glyph unicode="0" horiz-adv-x="1187" d="M111 662q36 185 135.5 341.5t235 247t274.5 90.5t239.5 -90.5t138 -247t1.5 -341.5t-135.5 -342.5t-235.5 -248.5t-275 -91t-239 91t-137.5 248.5t-1.5 342.5zM346 662q-35 -186 20.5 -316.5t170.5 -130.5t221 130.5t141 316.5q35 185 -20 314.5t-170 129.5 q-116 0 -222 -130t-141 -314z" />
<glyph unicode="1" horiz-adv-x="595" d="M137 0l187 958l-170 -77l114 293l367 167l-262 -1341h-236z" />
<glyph unicode="2" horiz-adv-x="1116" d="M2 0q27 139 105.5 266.5t179.5 225.5q59 56 138.5 107t147.5 85.5t130.5 69.5t103 74.5t49.5 84.5q32 170 -121 197q-150 26 -413 -83q-62 -26 -125 -58l102 256q58 38 199 77t235 39q88 0 160.5 -25.5t126 -79t72 -136.5t-1.5 -197q-9 -46 -36.5 -91t-60.5 -80 t-86 -74.5t-95 -66t-105 -63.5q-5 -3 -42.5 -24t-64 -36.5t-68.5 -44.5t-71.5 -55.5t-56.5 -62t-39 -69.5h593l-98 -236h-858z" />
<glyph unicode="3" horiz-adv-x="1034" d="M59 289q67 -42 165 -64t191.5 -19t166 42.5t86.5 111.5q12 69 -57.5 126.5t-190.5 72.5l37 195q127 15 220 72.5t105 125.5q18 95 -82.5 132t-242.5 17t-254 -77l102 252q87 31 178.5 45t177.5 10.5t159 -29t123.5 -69.5t71.5 -116.5t3 -164.5q-20 -102 -74.5 -171.5 t-167.5 -123.5q92 -53 119.5 -123.5t7.5 -173.5q-21 -110 -86 -191t-154.5 -123t-194 -57.5t-209 -2t-196.5 50.5z" />
<glyph unicode="4" horiz-adv-x="1085" d="M16 256l770 1085l220 -51l-156 -798h160l-97 -236h-108l-51 -256h-236l51 256h-553zM449 492h165l64 321z" />
<glyph unicode="5" horiz-adv-x="1064" d="M92 270q53 -31 125.5 -49.5t150 -17.5t146.5 21t120 71t66 127q14 67 -7.5 111t-84.5 67.5t-178.5 21.5t-286.5 -30l185 729h716l7 -236h-545l-60 -239q91 7 165.5 -1t128.5 -28.5t94 -52.5t63.5 -71.5t35 -87.5t11 -98.5t-11.5 -105.5q-21 -108 -82 -193t-147.5 -134.5 t-188.5 -73.5t-210 -15.5t-208 46.5z" />
<glyph unicode="6" horiz-adv-x="1056" d="M69 357q0 83 17 178q34 174 85.5 310.5t129.5 248t190 175.5t254 72q112 6 261 -22l4 -246q-105 36 -192.5 44t-151 -7t-115 -53.5t-86.5 -88.5t-64 -118q64 38 131 55t127 12t115 -28t96 -64.5t69 -97.5t33.5 -128t-9.5 -155q-37 -193 -192 -328.5t-349 -135.5 q-87 0 -154 27.5t-109 77.5t-66 119.5t-24 152.5zM297 444q-18 -95 29 -162t143 -67q104 0 170.5 60t87.5 169q23 113 -16.5 183.5t-147.5 70.5q-106 0 -175.5 -76t-90.5 -178z" />
<glyph unicode="7" horiz-adv-x="966" d="M135 -2l590 1087h-588l99 236h862l-709 -1323h-254z" />
<glyph unicode="8" horiz-adv-x="1101" d="M66 424q19 96 81 188.5t150 155.5q-59 87 -37 201q21 107 92 193.5t166.5 132.5t194.5 46q151 0 243.5 -105.5t61.5 -266.5q-21 -111 -117 -201q65 -62 93.5 -155t9.5 -189q-36 -183 -197 -313.5t-361 -130.5q-133 0 -229 61t-135 162.5t-16 220.5zM301 424 q-19 -88 38 -148.5t155 -60.5q97 0 176 60t98 149q19 96 -37.5 160.5t-152.5 64.5t-177 -64.5t-100 -160.5zM498 977q-8 -46 31.5 -69t93.5 -23q36 0 68.5 8.5t59.5 30t33 53.5q12 66 -24.5 97.5t-93.5 31.5q-55 0 -105.5 -32t-62.5 -97z" />
<glyph unicode="9" horiz-adv-x="1058" d="M106 248q105 -36 192.5 -44t151 7t115 53.5t86.5 88.5t64 118q-74 -44 -152 -59.5t-145.5 -2t-126 50.5t-94 98t-50 140.5t6.5 178.5q37 193 191.5 328.5t348.5 135.5q87 0 154 -27.5t109 -77.5t66 -119.5t24 -152.5t-17 -178q-34 -174 -85.5 -310.5t-129.5 -248 t-190 -175.5t-254 -72q-111 -6 -260 22zM389 877q-23 -113 16.5 -183.5t147.5 -70.5q106 0 175.5 76t90.5 178q18 95 -29 162t-143 67q-104 0 -170.5 -60t-87.5 -169z" />
<glyph unicode=":" horiz-adv-x="389" d="M-33 133q12 63 65.5 108.5t117.5 45.5q63 0 99.5 -45.5t24.5 -108.5q-12 -64 -66 -108.5t-118 -44.5t-99.5 44t-23.5 109zM102 831q12 63 66.5 108.5t118.5 45.5q63 0 99 -45.5t24 -108.5q-12 -64 -66 -108.5t-117 -44.5q-65 0 -101 44.5t-24 108.5z" />
<glyph unicode=";" horiz-adv-x="481" d="M-160 -201l246 420h276l-307 -420h-215zM184 829q12 63 65.5 108.5t117.5 45.5q63 0 100 -45.5t25 -108.5q-13 -64 -67.5 -108.5t-117.5 -44.5q-65 0 -100.5 44.5t-22.5 108.5z" />
<glyph unicode="&#x3c;" horiz-adv-x="1124" d="M47 592l928 -533l47 242l-506 291l621 293l47 243z" />
<glyph unicode="=" horiz-adv-x="1067" d="M18 287l48 235h942l-47 -235h-943zM90 655l47 236h942l-47 -236h-942z" />
<glyph unicode="&#x3e;" horiz-adv-x="1124" d="M-14 125l1136 532l-927 537l-48 -244l506 -293l-620 -290z" />
<glyph unicode="?" horiz-adv-x="968" d="M125 1159l102 275q81 41 204.5 76.5t213.5 35.5q196 0 296.5 -114.5t59.5 -329.5q-12 -64 -44 -122t-74.5 -103.5t-92 -88.5t-100.5 -85t-96 -84.5t-83 -96.5t-58 -112h-195q5 70 34 135.5t71.5 117t93 99.5t101.5 90.5t94 82t74.5 82.5t39.5 85q29 147 -74 198 q-114 57 -335 -27q-110 -41 -232 -114zM168 119q11 56 57 94.5t101 38.5q56 0 87 -39t21 -94q-11 -54 -58 -93.5t-102 -39.5t-86 39.5t-20 93.5z" />
<glyph unicode="@" horiz-adv-x="2068" d="M82 512q38 194 147 370t261 303.5t343.5 203t385.5 75.5t355.5 -75.5t264.5 -203t144.5 -303.5t3.5 -370q-23 -116 -68 -209.5t-101.5 -153t-122.5 -99t-133 -52t-130 -8t-115.5 29.5t-87.5 64q-66 -50 -157.5 -74t-151.5 -24q-141 0 -237.5 71.5t-132 190.5t-7.5 264 q21 107 74 203t128.5 167.5t174 113.5t204.5 42q129 0 189 -55l12 61l225 -51l-123 -624q-14 -73 39 -105t124 1q94 43 140 169q13 36 21 78q29 146 -2 278.5t-108 228.5t-199 153t-268 57q-145 0 -289 -57t-258.5 -153t-197.5 -228.5t-112 -278.5q-29 -145 2 -278t109 -229 t199.5 -153t267.5 -57q186 0 360 88l-127 -278q-162 -45 -278 -45q-195 0 -356.5 75t-264.5 202.5t-144 303.5t-3 371zM778 512q-25 -122 29 -198t162 -76q55 0 115 19.5t96 47.5l77 402q-59 79 -182 79q-108 0 -191 -76.5t-106 -197.5z" />
<glyph unicode="A" horiz-adv-x="1587" d="M-74 0l989 1536h154l391 -1536h-258l-92 360h-692l-234 -360h-258zM569 596h482l-138 534z" />
<glyph unicode="B" horiz-adv-x="1292" d="M23 0l299 1536h581q205 0 311 -119q77 -86 77 -221q0 -52 -11 -111q-18 -93 -81.5 -174.5t-115.5 -111.5q73 -37 107 -127q19 -52 19 -116q0 -49 -11 -105q-17 -84 -63.5 -162.5t-121 -144t-186.5 -105t-245 -39.5h-273h-286zM313 236h314q294 0 336 215q5 26 5 49 q0 33 -10 60q-17 46 -55.5 69t-80.5 33t-89 10h-334zM444 907h314q47 0 91 9t85.5 28.5t70.5 55.5t39 85q5 27 5 51q0 64 -38 105q-53 56 -173 59q-21 1 -85.5 1t-142 -0.5t-88.5 -0.5z" />
<glyph unicode="C" horiz-adv-x="1218" d="M124 445q-12 63 -12 133q0 88 19 186q34 171 117 318t194 247t241 157.5t259 61.5h19q156 0 321 -45v-243q-142 51 -265 51q-15 0 -29 -1q-134 -7 -241 -54t-186 -128.5t-127 -174t-67 -189.5q-9 -54 -11 -106q0 -7 -1 -14q1 -45 9 -90q10 -52 28.5 -99t51 -87.5 t74.5 -72t100 -51.5q59 -18 128 -24q22 -2 45 -2q51 0 112 8q88 12 187 42l-95 -243q-184 -45 -337 -45h-19q-128 4 -236 61t-180 159t-99 245z" />
<glyph unicode="D" horiz-adv-x="1423" d="M23 0l299 1536h544q111 0 199.5 -22.5t149.5 -61.5t103.5 -95.5t64.5 -122.5q21 -65 29 -143q4 -43 4 -87q0 -35 -2 -70q-6 -79 -23 -166q-69 -356 -287 -562t-522 -206h-559zM303 236h324q197 0 340 149t188 383q16 84 19 156v23q0 61 -13 121q-16 71 -53.5 121 t-109.5 80.5t-173 30.5h-313z" />
<glyph unicode="E" horiz-adv-x="1275" d="M23 0l299 1536h999l6 -236h-815l-82 -413h666l-45 -236h-666l-82 -415h815l-96 -236h-999z" />
<glyph unicode="F" horiz-adv-x="1234" d="M23 0l299 1536h999l6 -236h-815l-82 -413h645l-45 -236h-645l-127 -651h-235z" />
<glyph unicode="G" horiz-adv-x="1269" d="M130 403q-18 76 -18 166t19 195q33 171 117 318t195 247t241.5 157.5t259.5 61.5h30q184 0 349 -45v-243q-123 43 -236 54q-43 4 -82 4q-65 0 -120 -11q-89 -18 -167 -57t-135.5 -94t-102.5 -121t-72 -134t-41 -137q-10 -55 -10 -110q0 -29 3 -58q8 -83 42 -160 t98 -130.5t158 -75.5q46 -11 100 -11q58 0 125 12l92 476l225 -52l-119 -606q-147 -63 -301 -73q-28 -2 -56 -2q-121 0 -228 36q-132 44 -230.5 142t-135.5 251z" />
<glyph unicode="H" horiz-adv-x="1433" d="M23 0l299 1536h235l-127 -649h717l127 649h235l-299 -1536h-235l127 651h-717l-127 -651h-235z" />
<glyph unicode="I" d="M43 0l299 1536h236l-299 -1536h-236z" />
<glyph unicode="J" horiz-adv-x="815" d="M-10 233q49 -21 106 -23h11q52 0 103 18q57 19 107 55.5t87 96t51 132.5l200 1024h236l-201 -1024q-34 -180 -139 -311.5t-253 -184.5q-83 -30 -168 -30q-66 0 -134 18z" />
<glyph unicode="K" horiz-adv-x="1443" d="M23 0l299 1536h235l-127 -649l760 649h330l-729 -625l423 -911h-282l-344 737l-223 -188l-107 -549h-235z" />
<glyph unicode="L" horiz-adv-x="1185" d="M23 0l299 1536h235l-254 -1300h778l-96 -236h-962z" />
<glyph unicode="M" horiz-adv-x="1667" d="M23 0l299 1536h153l379 -920l735 920h154l-299 -1536h-236l185 948l-627 -776l-324 772l-184 -944h-235z" />
<glyph unicode="N" horiz-adv-x="1497" d="M23 0l299 1536h153l658 -1059l204 1059h236l-299 -1536h-154l-657 1059l-205 -1059h-235z" />
<glyph unicode="O" horiz-adv-x="1572" d="M118 518q-3 36 -3 73q0 85 16 177q31 161 115 307.5t198.5 253t257.5 169.5t287 63q96 0 182 -28.5t152.5 -80t118.5 -124.5t79 -161t35 -189q2 -25 2 -50q0 -78 -18 -160q-32 -161 -116 -308t-199 -253t-257.5 -169t-285.5 -63q-115 0 -215.5 40.5t-172 112.5t-119 172 t-57.5 218zM365 768q-13 -66 -13 -127q0 -80 22 -153q38 -128 131.5 -202.5t221.5 -74.5q195 0 365.5 163t214.5 394q13 65 13 127q0 81 -22 153q-38 128 -132 202.5t-222 74.5t-251 -74.5t-211 -203t-117 -279.5z" />
<glyph unicode="P" horiz-adv-x="1196" d="M23 0l299 1536h452q135 0 229.5 -29t142.5 -74t70 -111q21 -61 21 -117q-1 -4 -1 -8q-2 -60 -15 -132q-8 -42 -23.5 -86t-44 -95t-66 -97t-93 -89.5t-122 -75t-156.5 -50.5t-192 -19h-157l-109 -553h-235zM412 788h172q95 0 169.5 23t120.5 63.5t73 88t38 102.5 q7 34 7 63q0 77 -49 117q-67 55 -214 55h-217z" />
<glyph unicode="Q" horiz-adv-x="1542" d="M131 768q42 215 172 397.5t313 289t375 106.5q191 0 332.5 -106.5t200.5 -289.5q34 -107 34 -224q0 -84 -18 -173q-43 -232 -190 -424t-346 -291q69 -115 199 -115q31 0 65 7l-119 -199q-37 -11 -75 -11q-13 0 -25 1q-51 5 -98.5 27t-98.5 76.5t-100 140.5q-58 -5 -70 -5 q-192 0 -333.5 106t-200.5 289q-34 107 -34 226q0 83 17 172zM365 768q-13 -66 -13 -127q0 -80 22 -153q38 -128 131.5 -202.5t221.5 -74.5q195 0 365.5 163t214.5 394q14 65 14 126q0 47 -8 90q-19 102 -67 177.5t-127 119.5t-175 44q-128 0 -250.5 -74.5t-210.5 -203 t-118 -279.5z" />
<glyph unicode="R" horiz-adv-x="1271" d="M23 0l299 1536h452q135 0 229.5 -29t142.5 -74t70 -111q21 -61 21 -117q-1 -4 -1 -8q-2 -60 -15 -132q-10 -52 -32.5 -106.5t-60.5 -115t-99 -116t-138 -94.5l199 -633h-265l-176 561q-52 -8 -125 -8h-157l-109 -553h-235zM412 788h172q95 0 169.5 23t120.5 63.5t73 88 t38 102.5q7 34 7 63q0 77 -49 117q-67 55 -214 55h-217z" />
<glyph unicode="S" horiz-adv-x="1224" d="M92 80v266q73 -41 162.5 -73.5t191.5 -48.5q64 -10 121 -10q35 0 67 4q86 10 151.5 62t84.5 146q3 13 3 26q-1 28 -13 52q-18 36 -47 60t-81.5 47.5t-96 37.5t-108 34.5t-99.5 33.5q-122 45 -178 152q-39 74 -39 161q0 39 8 80q20 102 64.5 181t99.5 128t125.5 80.5 t137 43.5t138.5 13h13q227 0 436 -100v-266q-73 41 -163 74q-88 32 -190 48q-64 10 -122 10q-34 0 -66 -4q-86 -10 -152 -62t-85 -146q-6 -32 2 -60t25 -49.5t46.5 -41.5t60 -34t73 -29.5t77.5 -26t81 -25t77 -25.5q119 -41 177 -150q40 -76 40 -164q0 -38 -8 -79 q-20 -102 -64.5 -181t-99.5 -128t-125.5 -80.5t-137 -43.5t-138.5 -13h-13q-227 0 -436 100z" />
<glyph unicode="T" horiz-adv-x="1402" d="M215 1300l45 236h1280l-45 -236h-522l-254 -1300h-236l254 1300h-522z" />
<glyph unicode="U" horiz-adv-x="1433" d="M135 573l187 963h235l-186 -963q-9 -48 -10 -90q-1 -103 55 -173q78 -99 239 -99q162 0 281 98.5t151 261.5l187 965h235l-186 -965q-23 -118 -89.5 -226.5t-160 -190.5t-215 -130.5t-248.5 -48.5q-169 0 -289.5 83.5t-168.5 219.5q-29 84 -29 176q0 58 12 119z" />
<glyph unicode="V" horiz-adv-x="1587" d="M225 1536h258l289 -1130l729 1130h258l-989 -1536h-154z" />
<glyph unicode="W" horiz-adv-x="1921" d="M225 1536h252l176 -1065l459 825l137 -825l592 1065h252l-858 -1536h-154l-104 608l-338 -608h-154z" />
<glyph unicode="X" horiz-adv-x="1374" d="M-74 0l668 768l-369 768h287l266 -557l482 557h286l-667 -768l368 -768h-284l-267 557l-485 -557h-285z" />
<glyph unicode="Y" horiz-adv-x="1429" d="M225 1536h277l282 -666l543 666h275l-750 -928l-119 -608h-235l118 608z" />
<glyph unicode="Z" horiz-adv-x="1351" d="M2 0l1002 1300h-768l96 236h1118l-995 -1300h762l-97 -236h-1118z" />
<glyph unicode="[" horiz-adv-x="614" d="M-104 -348l405 2089h553l6 -236h-368l-316 -1618h369l-96 -235h-553z" />
<glyph unicode="\" horiz-adv-x="882" d="M215 1638h248l256 -1755h-250z" />
<glyph unicode="]" horiz-adv-x="616" d="M-172 -113h369l315 1618h-369l97 236h553l-406 -2089h-553z" />
<glyph unicode="^" horiz-adv-x="1159" d="M143 987l639 565l418 -565l-239 -188l-259 348l-393 -348z" />
<glyph unicode="_" horiz-adv-x="1208" d="M-141 -215l41 215h1208l-41 -215h-1208z" />
<glyph unicode="`" horiz-adv-x="727" d="M354 1804h297l164 -317h-235z" />
<glyph unicode="a" horiz-adv-x="1011" d="M38 235q-1 9 -1 18q0 31 8 62q19 98 75 171t138 111q81 39 183 47q22 2 44 2q81 0 168 -25q7 35 7.5 63t-6 49.5t-17.5 37.5t-30.5 26t-41 16t-53.5 7.5t-63 0t-74 -7t-83 -11.5t-93 -16l86 220q52 14 107 22q54 9 118 11h28q48 0 94 -5q58 -7 109.5 -29.5t87 -58.5 t52.5 -96q11 -39 11 -85q0 -25 -3 -52q-8 -60 -30 -145.5t-34 -136.5q-7 -31 -7 -66q0 -25 3 -51q8 -66 47 -121l-114 -213q-60 7 -115 83q-60 -39 -135.5 -60t-138.5 -21q-68 0 -123.5 13.5t-91.5 37t-62.5 56t-36.5 69.5t-13 77zM281 315q-3 -15 -3 -29q0 -42 31 -64 t81 -23q17 0 37 3q77 10 167 56q0 88 14 156q-55 19 -105 26q-27 4 -53 4q-22 0 -44 -3q-48 -6 -81.5 -38t-43.5 -88z" />
<glyph unicode="b" horiz-adv-x="1097" d="M25 0l313 1618l244 51l-131 -678q101 37 191 45q27 3 52 3q58 1 104 -13q68 -20 120 -63.5t78 -110.5q26 -66 34 -152q2 -22 2 -44q0 -67 -16 -144q-27 -138 -80 -244t-118 -166q-66 -62 -142 -94q-73 -32 -144 -31h-4q-74 1 -141 26t-117 73l-12 -76h-233zM328 354 q66 -91 140 -121q39 -16 74 -16q32 0 61 13q61 27 109 101t68 181q9 45 9 84q0 62 -22 110q-35 78 -127 93q-14 2 -30 2q-85 0 -211 -68z" />
<glyph unicode="c" horiz-adv-x="937" d="M82 510q38 195 156 333q118 139 287 183q65 17 136 16q112 0 238 -43v-251q-98 57 -196 67q-23 2 -45 2q-72 -1 -132 -25q-78 -32 -134.5 -105.5t-76.5 -176.5q-8 -42 -8 -78q0 -53 17 -97q28 -73 94 -106q50 -25 123 -25q21 0 45 2q102 10 223 68l-96 -251 q-145 -44 -259 -44q-71 0 -129 17q-153 44 -217 182q-40 86 -40 195q0 64 14 137z" />
<glyph unicode="d" horiz-adv-x="1099" d="M73 228q-10 47 -10 105q0 80 19 179q24 122 75 222t123 168t160 104q81 33 174 33h16q102 -3 206 -48l120 627l244 51l-129 -663l-194 -1006h-234l16 76q-82 -58 -175 -83q-60 -16 -116 -16q-32 0 -62 5q-84 14 -147 74t-86 172zM307 399q0 -52 15 -88.5t38.5 -60.5 t60.5 -30q13 -2 26 -1q26 1 54 7q43 10 98 43t114 85l71 379q-98 69 -183 69q-16 0 -31 -2q-97 -16 -163.5 -94.5t-89.5 -193.5q-10 -61 -10 -113z" />
<glyph unicode="e" horiz-adv-x="1105" d="M70 412q2 48 12 98q46 240 209.5 387t390.5 147q96 0 167.5 -29.5t112.5 -80t61 -116.5q17 -57 17 -120v-22q-4 -75 -24.5 -152t-57.5 -149h-645q1 -51 32.5 -89.5t87.5 -58.5q55 -19 127 -23q12 -1 24 -1q62 0 134 15q86 18 173 56l-80 -251q-111 -29 -205 -39 q-58 -6 -107 -7q-31 1 -59 3q-72 6 -130 26.5t-98.5 51.5t-70 72t-45.5 86q-16 46 -22 96q-5 36 -4 72q-1 15 0 28zM346 610h451q7 23 7 45q0 46 -32 89q-48 63 -137 63q-201 0 -289 -197z" />
<glyph unicode="f" horiz-adv-x="829" d="M86 0l152 788h-111l68 236h90l16 82q18 96 48 171.5t66 126.5t83 85t95.5 52t108.5 24q39 4 75 4q21 0 42 -1q56 -4 125 -14v-225q-83 21 -146 23q-10 1 -19 1q-51 0 -89 -11q-44 -14 -75 -47t-49.5 -78.5t-30.5 -110.5l-17 -82h311l-67 -236h-291q-8 -43 -22 -119 t-45 -239t-82 -430h-236z" />
<glyph unicode="g" horiz-adv-x="1099" d="M-12 -438l10 272q210 -90 353 -90q242 0 292 256l16 76q-82 -58 -175 -83q-60 -16 -116 -16q-31 0 -62 5q-84 14 -147 74t-86 172q-10 48 -10 105q0 80 19 179q24 122 75 222t123.5 168t159.5 104q81 33 174 33h16q102 -3 206 -48l10 56l225 -43l-194 -1004 q-62 -313 -287 -432q-116 -62 -271 -62q-147 0 -331 56zM310 362q8 -63 42.5 -96.5t84.5 -37.5q6 -1 13 -1q46 0 108 28q72 32 153 99l73 379q-99 68 -183 68q-16 0 -31 -2q-97 -15 -164 -93.5t-89 -193.5q-9 -56 -9 -102q0 -25 2 -48z" />
<glyph unicode="h" horiz-adv-x="1067" d="M4 0l311 1608l248 61l-145 -747q72 66 152 100q74 31 138 31q5 1 10 1q69 -2 128.5 -28.5t98.5 -76.5t50 -113q9 -55 9 -105v-21q-2 -58 -23 -161l-107 -549h-235l106 549q10 47 10 91q-1 40 -9 74q-8 36 -26 62t-49 36q-16 5 -34 4q-19 0 -39 -4q-42 -10 -100.5 -47 t-128.5 -101l-129 -664h-236z" />
<glyph unicode="i" horiz-adv-x="552" d="M57 0l195 993l244 51l-203 -1044h-236zM299 1317q10 55 57 94t103 39q55 0 86 -38q23 -28 23 -67q0 -13 -3 -28q-11 -56 -56.5 -94.5t-100.5 -38.5q-56 0 -88 39q-24 30 -23 68q0 13 2 26z" />
<glyph unicode="j" horiz-adv-x="585" d="M-248 -256q34 -4 64 -4q49 0 88 10q63 18 99.5 45.5t64.5 94t39.5 112t29.5 141.5l166 848l246 53l-176 -901q-18 -92 -31 -149.5t-38 -136.5t-52.5 -126.5t-72 -100t-99 -78.5t-132.5 -40q-46 -8 -98 -8q-35 0 -73 4zM352 1317q11 56 57 94.5t101 38.5q56 0 87 -39 q23 -29 23 -68q0 -13 -2 -26q-10 -55 -56.5 -94t-102.5 -39q-55 0 -87 38q-23 29 -23 67q0 14 3 28z" />
<glyph unicode="k" horiz-adv-x="1079" d="M25 0l305 1577l243 51l-172 -895l387 307l267 -59l-432 -346l295 -635h-281l-219 471l-80 -63l-6 -33l-74 -375h-233z" />
<glyph unicode="l" d="M45 0l313 1618l244 51l-323 -1669h-234z" />
<glyph unicode="m" horiz-adv-x="1548" d="M25 0l194 1004l244 40l-23 -122q80 83 180 113q48 15 92 15q48 0 92 -17q85 -32 122 -120q74 52 140 84t120 43q38 8 73 8q13 0 27 -2q46 -4 78.5 -26t57 -55t34.5 -79t12 -100q0 -6 -1 -12q0 -49 -11 -104l-131 -670h-235l114 588q8 52 8 94v16q-2 48 -24 74 q-21 24 -55 28q-4 0 -8 1q-32 0 -79 -24q-53 -27 -118 -83l-135 -694h-236l119 608q7 44 7 80q0 14 -1 26q-4 44 -29 65q-23 19 -56 19h-5q-36 -2 -88 -33t-113 -89l-131 -676h-235z" />
<glyph unicode="n" horiz-adv-x="1118" d="M25 0l192 993l246 51l-25 -129q213 137 350 137h16q140 -8 192 -140q29 -72 29 -172q0 -80 -19 -177l-111 -563h-236l111 563q9 51 9 93q-1 40 -13 68q-12 30 -32 48t-54 20q-3 0 -7 1q-31 0 -69 -13q-42 -14 -98 -50.5t-121 -92.5l-125 -637h-235z" />
<glyph unicode="o" horiz-adv-x="1179" d="M82 512q21 109 78.5 207t138 169.5t184 113.5t211.5 42q144 0 247 -72q103 -70 144 -192q24 -72 24 -154q0 -55 -11 -114q-28 -145 -117 -267t-220.5 -193.5t-275.5 -71.5t-247 72q-104 70 -144 192q-24 72 -23 153q0 55 11 115zM317 512q-7 -35 -7 -67q0 -81 45 -143 q63 -87 177 -87q112 0 208.5 87t121.5 210q7 35 7 67q1 81 -45 143q-64 87 -177 87q-114 0 -209.5 -86.5t-120.5 -210.5z" />
<glyph unicode="p" horiz-adv-x="1099" d="M-86 -573l113 589l190 977l244 51l-19 -83q82 58 175 83q59 15 115 15q32 0 63 -5q85 -14 148 -74t85 -172q10 -48 10 -105q0 -80 -18 -179q-24 -122 -75.5 -223.5t-124.5 -171.5t-160 -109q-84 -36 -180 -36h-10q-102 2 -206 47l-108 -553zM313 289q96 -66 178 -66 q19 0 38 4q98 19 165.5 100.5t89.5 196.5q10 61 10 113t-15 88.5t-38.5 60.5t-60.5 30q-12 1 -25 1q-26 0 -54 -7q-43 -10 -97 -43t-113 -85z" />
<glyph unicode="q" horiz-adv-x="1097" d="M69 334q-2 21 -2 43q0 69 17 147q27 138 80 244t118.5 166.5t141.5 93.5q73 32 144 32h4q74 -1 140.5 -26t116.5 -73l15 83l223 -51l-190 -977l-103 -536l-244 -53l117 604q-102 -37 -191 -45q-23 -1 -45 -1q-62 0 -111 15q-68 21 -119.5 66.5t-78 113.5t-33.5 154z M319 524q-8 -44 -8 -84q0 -62 21 -112q35 -82 126 -101q17 -4 36 -4q82 0 202 66l78 393q-67 91 -142 121q-39 16 -74 16q-32 0 -61 -13q-61 -27 -109.5 -101t-68.5 -181z" />
<glyph unicode="r" horiz-adv-x="919" d="M23 0l194 993l244 51l-17 -88q71 60 163 80q55 12 107 12q34 0 66 -6q80 -14 142 -51l-19 -250q-77 55 -164 69q-22 3 -45 4q-66 0 -136 -29q-94 -39 -173 -134l-127 -651h-235z" />
<glyph unicode="s" horiz-adv-x="976" d="M72 295q92 -61 210 -91q72 -18 135 -18q41 0 78 8q95 20 109 93q8 38 -11 60.5t-58 32.5t-81.5 15t-93 13t-81.5 22t-53.5 27t-44 31.5t-33.5 41.5t-20 53q-7 26 -7 60v9q1 40 10 89q15 78 63 138t114.5 93.5t137.5 49.5t144 16q88 0 178.5 -27t128.5 -55l6 -241 q-91 61 -209 91q-72 18 -136 18q-41 0 -78 -8q-95 -20 -109 -93q-2 -11 -2 -22q1 -23 13 -39q18 -24 56.5 -35t80 -16t93.5 -12.5t84 -18.5q48 -16 79.5 -38t54 -59t24.5 -88v-13q0 -48 -10 -114q-15 -78 -63 -138t-114.5 -93.5t-137.5 -49.5t-144 -16q-88 0 -178.5 27 t-128.5 55z" />
<glyph unicode="t" horiz-adv-x="866" d="M125 788l98 236h113l39 203l258 112l-62 -315h330l-98 -236h-279l-84 -436q-10 -51 -12 -84t20 -47q14 -9 43 -9q14 0 32 2q53 7 151 36l-99 -246q-118 -25 -197 -25q-46 0 -79 8q-90 23 -109 114q-7 33 -7 74q0 74 22 177l84 436h-164z" />
<glyph unicode="u" horiz-adv-x="1095" d="M86 258q2 72 18 156l115 590l246 51l-125 -639q-9 -46 -9 -82q0 -69 32 -103q23 -24 60 -24q79 0 221 115l69 59l125 643h235l-199 -1024h-235l18 102q-99 -62 -183 -96q-84 -32 -146 -38l-30 -2q-44 0 -80 13q-48 17 -77 55.5t-43 95.5q-12 50 -12 111v17z" />
<glyph unicode="v" horiz-adv-x="1093" d="M127 1024h250l145 -639l396 639h249l-624 -1024h-193z" />
<glyph unicode="w" horiz-adv-x="1507" d="M127 1024h256l106 -524l312 524h106l107 -524l311 524h256l-612 -1024h-107l-108 518l-310 -518h-106z" />
<glyph unicode="x" horiz-adv-x="1089" d="M-74 0l473 514l-272 512h293l164 -311l284 309h291l-469 -510l275 -512h-293l-166 309l-287 -311h-293z" />
<glyph unicode="y" horiz-adv-x="1056" d="M6 -262q54 10 83.5 21t64 43t66.5 80t85 141l-178 1001h246l127 -668l385 668h245l-673 -1186q-44 -75 -88 -129.5t-79.5 -86t-81.5 -53t-77.5 -30.5t-83.5 -20z" />
<glyph unicode="z" horiz-adv-x="1075" d="M-18 0l641 788h-488l98 236h861l-641 -788h487l-98 -236h-860z" />
<glyph unicode="{" horiz-adv-x="614" d="M29 -82q81 414 99 528t-1 134l-41 41l29 153l57 41q26 20 50 119t87 423q5 25 7.5 39t7 37t8.5 42q29 150 98 208t219 58h205l6 -236h-256q-31 0 -37 -30l-118 -609q-3 -19 -10 -38t-18.5 -39t-18.5 -31t-22.5 -33t-19.5 -27q1 -4 6 -20t7 -22.5t5.5 -22t5 -25.5 t2.5 -24.5t0 -28t-3 -27.5l-119 -610q-6 -31 25 -31h256l-96 -235h-205q-150 0 -197 58t-18 208z" />
<glyph unicode="|" horiz-adv-x="524" d="M-14 -307l368 1904h236l-369 -1904h-235z" />
<glyph unicode="}" horiz-adv-x="616" d="M-172 -113h256q31 0 37 31l119 610q3 19 10 38t18 38.5t18.5 32t22 33.5t19.5 28q-1 3 -5.5 17t-6 19t-5 18.5t-5 21t-3.5 21t-2 23.5t1 23t3 25l119 609q6 30 -25 30h-256l97 236h204q150 0 197 -58t18 -208q-11 -54 -29 -150q-60 -303 -71.5 -381.5t2.5 -128.5l41 -41 l-29 -153l-57 -41q-26 -19 -50.5 -122.5t-90.5 -442.5q-12 -63 -19 -97q-29 -150 -98 -208t-219 -58h-205z" />
<glyph unicode="~" horiz-adv-x="862" d="M12 469l97 229q184 81 323 29q137 -51 229 -44.5t228 73.5l-96 -228q-183 -79 -324 -30q-140 49 -231.5 43t-225.5 -72z" />
<glyph unicode="&#xa1;" horiz-adv-x="602" d="M-41 -440l303 1188h172l-160 -1188h-315zM272 1051q10 55 57 94t103 39q55 0 86.5 -38.5t20.5 -94.5q-9 -54 -56 -93.5t-102 -39.5t-86.5 39t-22.5 94z" />
<glyph unicode="&#xa2;" horiz-adv-x="933" d="M109 653q39 198 158.5 337t291.5 181l21 111h235l-20 -104q58 -8 131 -35v-252q-98 57 -196 67t-176.5 -22.5t-135 -106t-76.5 -176.5q-14 -82 -1.5 -145.5t56.5 -102t106.5 -52.5t148.5 2.5t182 62.5l-97 -252q-89 -28 -145 -35l-19 -100h-235l20 106 q-156 41 -222 179.5t-27 336.5z" />
<glyph unicode="&#xa3;" horiz-adv-x="1228" d="M12 0l45 236q87 22 148.5 105.5t81.5 188.5l26 129h-143l45 236h143l25 121q24 124 80 223.5t133.5 164t170.5 99t196.5 33.5t205.5 -37l9 -229q-93 42 -181.5 51t-166 -16t-134 -98.5t-78.5 -190.5l-24 -121h235l-45 -236h-235l-27 -129q-20 -100 -54.5 -177t-74.5 -117 h627l-107 -236h-901z" />
<glyph unicode="&#xa4;" horiz-adv-x="1271" d="M43 272l180 150q-41 107 -18 233q23 122 108 234l-123 151l197 164l123 -151q117 63 246 63q128 0 219 -63l180 149l131 -164l-178 -149q42 -106 18 -234q-22 -120 -108 -233l119 -146l-197 -165l-117 147q-120 -63 -248 -63q-127 0 -221 63l-178 -149zM440 655 q-19 -92 35 -158.5t148 -66.5q93 0 171 66t97 159q19 94 -34.5 160t-147.5 66t-172 -66t-97 -160z" />
<glyph unicode="&#xa5;" horiz-adv-x="1470" d="M186 215l45 236h375l19 92h-375l41 215h282l-327 778h276l283 -666l543 666h274l-629 -778h281l-41 -215h-373l-18 -92h372l-45 -236h-372l-43 -215h-236l43 215h-375z" />
<glyph unicode="&#xa6;" horiz-adv-x="524" d="M-14 -307l153 799h236l-154 -799h-235zM201 799l153 798h236l-154 -798h-235z" />
<glyph unicode="&#xa7;" horiz-adv-x="964" d="M51 178q49 -20 97 -36.5t107.5 -32.5t110.5 -19.5t97 3.5t77 35t40 75q7 34 -12 58t-55.5 36.5t-83 26t-96 25t-94.5 34.5t-77.5 53t-46 82t-0.5 121q10 55 48 102.5t89 77.5q-40 37 -57 93t-5 116q13 66 46.5 118.5t77.5 85.5t100.5 54.5t111.5 30t113 8.5 q94 0 182 -18.5t121 -42.5l10 -220q-55 24 -116 44t-131.5 32t-128 8t-100.5 -33t-54 -85q-6 -31 20 -53.5t71.5 -37.5t101 -31t109.5 -40t96 -56.5t61.5 -88.5t5.5 -130q-10 -55 -48 -102.5t-89 -77.5q39 -36 55.5 -93t5.5 -116q-13 -66 -46.5 -118.5t-77.5 -85.5 t-100.5 -54.5t-111.5 -30t-113 -8.5q-88 0 -174 27t-125 55zM344 621q-11 -59 63 -88t156.5 -12t93.5 71q11 59 -63 88.5t-156.5 12.5t-93.5 -72z" />
<glyph unicode="&#xa8;" horiz-adv-x="716" d="M311 1589q7 42 44 72.5t79 30.5t66 -30t16 -73q-7 -42 -43.5 -72t-79.5 -30q-41 0 -65 29.5t-17 72.5zM618 1589q7 41 44.5 72t78.5 31q42 0 66 -30.5t16 -72.5q-7 -42 -43.5 -72t-79.5 -30q-41 0 -65 29.5t-17 72.5z" />
<glyph unicode="&#xa9;" horiz-adv-x="1134" d="M217 1208q40 204 208 345t372 141q122 0 221.5 -64t147.5 -177t22 -245q-40 -204 -208 -344.5t-372 -140.5q-132 0 -231.5 70t-141 181.5t-18.5 233.5zM336 1208q-29 -152 57 -259t238 -107t280.5 107t157.5 259t-57 259.5t-238 107.5t-280.5 -107.5t-157.5 -259.5z M438 1208q14 74 62.5 136.5t114 96.5t141.5 40.5t145 -31.5l-6 -115q-39 29 -93 35t-104 -9.5t-90 -56t-51 -96.5t13 -96.5t67.5 -56t100.5 -9.5t108 35l-39 -114q-84 -38 -157.5 -32t-125.5 40t-76 96.5t-10 136.5z" />
<glyph unicode="&#xab;" horiz-adv-x="1230" d="M51 508l563 463l138 -176l-357 -287l246 -287l-207 -176zM492 508l563 463l137 -176l-356 -287l245 -287l-207 -176z" />
<glyph unicode="&#xac;" horiz-adv-x="1067" d="M92 666l47 235h942l-110 -563h-236l64 328h-707z" />
<glyph unicode="&#xad;" horiz-adv-x="821" d="M80 494l45 235h655l-45 -235h-655z" />
<glyph unicode="&#xae;" horiz-adv-x="1134" d="M82 1208q40 204 208 345t372 141q122 0 221.5 -64t147.5 -177t22 -245q-40 -204 -208 -344.5t-372 -140.5q-132 0 -231.5 70t-141 181.5t-18.5 233.5zM201 1208q-29 -152 57 -259t238 -107t280.5 107t157.5 259t-57 259.5t-238 107.5t-280.5 -107.5t-157.5 -259.5z M338 950l98 512q80 5 147 1t114 -18.5t67.5 -54t7.5 -104.5q-6 -30 -12 -50t-28.5 -49.5t-57.5 -45.5l59 -191h-125l-47 160q-35 -4 -76 -4l-28 -156h-119zM506 1212q75 0 107.5 14.5t39.5 55.5q6 35 -22 51t-99 10z" />
<glyph unicode="&#xaf;" horiz-adv-x="1013" d="M293 1487l29 153h808l-28 -153h-809z" />
<glyph unicode="&#xb0;" horiz-adv-x="532" d="M199 1323q19 95 96.5 160t171.5 65t147.5 -65t34.5 -160t-96.5 -160t-171.5 -65t-147.5 65t-34.5 160zM352 1323q-6 -29 11.5 -50.5t46.5 -21.5t54.5 21.5t31.5 50.5t-11.5 50.5t-46.5 21.5t-54.5 -21.5t-31.5 -50.5z" />
<glyph unicode="&#xb1;" horiz-adv-x="1183" d="M-37 0l41 215h1059l-41 -215h-1059zM78 594l43 215h422l63 332h215l-63 -332h422l-43 -215h-422l-64 -332h-215l64 332h-422z" />
<glyph unicode="&#xb4;" horiz-adv-x="727" d="M293 1487l287 317h297l-349 -317h-235z" />
<glyph unicode="&#xb5;" horiz-adv-x="1138" d="M-86 -573l305 1577l246 51l-117 -606q-23 -115 58 -171q70 -47 168 -25q105 23 160 109q25 39 34 87l111 575h235l-199 -1024h-235l8 43q-89 -47 -208.5 -47t-190.5 47l-109 -565z" />
<glyph unicode="&#xb6;" horiz-adv-x="1118" d="M184 1126q36 188 198 300t406 112h467l-20 -102h-57l-279 -1436h-102l278 1436h-71l-279 -1436h-236l140 713q-244 0 -363 112.5t-82 300.5z" />
<glyph unicode="&#xb7;" horiz-adv-x="512" d="M109 541q12 63 66 108t118 45q63 0 99 -45t24 -108q-12 -64 -66.5 -109t-118.5 -45t-99 44.5t-23 109.5z" />
<glyph unicode="&#xb8;" horiz-adv-x="497" d="M-31 -170q24 -14 66 -14q29 0 54.5 21t31.5 50q13 67 -84 99l57 129l31 65l129 -35l-33 -75q74 -68 53 -183q-19 -95 -97.5 -160t-172.5 -65h-18z" />
<glyph unicode="&#xbb;" horiz-adv-x="1228" d="M37 221l356 287l-246 287l207 176l383 -463l-563 -463zM477 221l357 287l-246 287l207 176l383 -463l-564 -463z" />
<glyph unicode="&#xbf;" horiz-adv-x="970" d="M-6 55q12 64 44 122.5t74.5 103.5t92 88t100.5 85t96.5 85t83.5 97t58 112h194q-5 -70 -34 -136t-71.5 -117t-93 -99t-101.5 -90.5t-94 -82.5t-74.5 -83t-39.5 -85q-29 -147 74 -198q114 -57 335 27q110 41 232 114l-102 -274q-81 -41 -204.5 -77t-213.5 -36 q-196 0 -296.5 114.5t-59.5 329.5zM561 1038q11 54 58 93.5t102 39.5t86 -39.5t20 -93.5q-11 -56 -56.5 -94.5t-100.5 -38.5q-56 0 -87.5 39t-21.5 94z" />
<glyph unicode="&#xc0;" horiz-adv-x="1587" d="M-74 0l987 1536h154l393 -1536h-258l-92 360h-694l-232 -360h-258zM567 596h482l-136 534zM743 1968h297l164 -317h-235z" />
<glyph unicode="&#xc1;" horiz-adv-x="1587" d="M-74 0l987 1536h154l393 -1536h-258l-92 360h-694l-232 -360h-258zM567 596h482l-136 534zM831 1651l287 317h297l-348 -317h-236z" />
<glyph unicode="&#xc2;" horiz-adv-x="1587" d="M-74 0l987 1536h154l393 -1536h-258l-92 360h-694l-232 -360h-258zM567 596h482l-136 534zM633 1651l360 276h154l254 -276h-215l-139 145l-199 -145h-215z" />
<glyph unicode="&#xc3;" horiz-adv-x="1587" d="M-74 0l989 1536h154l391 -1536h-258l-92 360h-692l-234 -360h-258zM569 596h482l-138 534zM612 1647l127 229q47 20 75.5 30t66.5 17.5t73.5 2.5t75.5 -21q66 -28 120.5 -38t113 -1t101.5 22.5t122 44.5l-123 -227q-47 -20 -76 -30.5t-68 -18.5t-76 -3t-77 21 q-67 27 -121.5 37t-112 1.5t-101 -22.5t-120.5 -44z" />
<glyph unicode="&#xc4;" horiz-adv-x="1587" d="M-74 0l989 1536h154l391 -1536h-258l-92 360h-694l-232 -360h-258zM567 596h484l-138 537zM786 1774q9 42 45 72t78 30q43 0 67 -29.5t15 -72.5q-8 -43 -43 -73t-78 -30q-42 0 -66.5 30.5t-17.5 72.5zM1094 1774q9 41 45.5 71.5t77.5 30.5q43 0 66.5 -30.5t14.5 -71.5 q-8 -43 -42.5 -73t-77.5 -30q-42 0 -66.5 30.5t-17.5 72.5z" />
<glyph unicode="&#xc5;" horiz-adv-x="1587" d="M-74 0l989 1536h154l391 -1536h-258l-92 360h-692l-234 -360h-258zM569 596h482l-138 534zM838 1876q19 95 97.5 160t172.5 65t146.5 -65t33.5 -160t-96.5 -160t-171.5 -65t-147.5 65t-34.5 160zM991 1876q-5 -29 13 -50.5t47 -21.5t54.5 21.5t29.5 50.5q6 29 -11.5 50.5 t-46.5 21.5t-54.5 -21.5t-31.5 -50.5z" />
<glyph unicode="&#xc6;" horiz-adv-x="2123" d="M-74 0l1372 1536h869l8 -236h-686l-82 -413h584l-45 -236h-584l-82 -415h686l-98 -236h-869l70 360h-532l-322 -360h-289zM748 596h368l101 524z" />
<glyph unicode="&#xc7;" horiz-adv-x="1218" d="M120.5 475q-18.5 131 10.5 289q33 171 117 318t195 247t241.5 157.5t259.5 61.5q163 3 338 -45v-243q-160 57 -294.5 50t-241 -54t-185.5 -128.5t-127 -174t-67 -189.5q-18 -97 -5.5 -189.5t60 -174t135.5 -128.5t219.5 -54t313.5 50l-95 -243q-174 -45 -317 -45l-10 -23 q74 -68 53 -182q-20 -95 -98 -160.5t-172 -65.5h-19l-16 168q21 -14 65 -14q29 0 54.5 21.5t31.5 50.5q4 13 0.5 25t-7 20.5t-12 16t-15 13t-16.5 10t-15 6.5t-12 4l-7 3l54 119q-108 24 -195.5 88.5t-145 164t-76 230.5z" />
<glyph unicode="&#xc8;" horiz-adv-x="1275" d="M25 0l297 1536h999l6 -236h-815l-80 -413h666l-47 -236h-666l-80 -415h815l-96 -236h-999zM582 1968h297l163 -317h-235z" />
<glyph unicode="&#xc9;" horiz-adv-x="1275" d="M25 0l297 1536h999l6 -236h-815l-80 -413h666l-47 -236h-666l-80 -415h815l-96 -236h-999zM711 1651l286 317h297l-348 -317h-235z" />
<glyph unicode="&#xca;" horiz-adv-x="1275" d="M25 0l297 1536h999l6 -236h-815l-80 -413h666l-47 -236h-666l-80 -415h815l-96 -236h-999zM457 1651l360 276h154l254 -276h-215l-140 145l-198 -145h-215z" />
<glyph unicode="&#xcb;" horiz-adv-x="1273" d="M23 0l299 1536h999l4 -236h-815l-80 -413h666l-45 -236h-666l-82 -415h815l-96 -236h-999zM614 1774q9 42 45 72t78 30q43 0 67 -29.5t15 -72.5q-8 -43 -43 -73t-78 -30q-42 0 -66.5 30.5t-17.5 72.5zM922 1774q9 41 45 71.5t77 30.5q43 0 67 -30.5t15 -71.5 q-8 -43 -42.5 -73t-77.5 -30q-42 0 -66.5 30.5t-17.5 72.5z" />
<glyph unicode="&#xcc;" d="M45 0l297 1536h236l-297 -1536h-236zM190 1968h297l164 -317h-235z" />
<glyph unicode="&#xcd;" d="M45 0l297 1536h236l-297 -1536h-236zM313 1651l287 317h297l-348 -317h-236z" />
<glyph unicode="&#xce;" d="M45 0l297 1536h236l-297 -1536h-236zM98 1651l361 276h153l254 -276h-215l-139 145l-199 -145h-215z" />
<glyph unicode="&#xcf;" d="M45 0l299 1536h236l-299 -1536h-236zM250 1774q9 42 46 72t79 30q43 0 67 -29.5t15 -72.5q-8 -43 -43 -73t-78 -30q-42 0 -67.5 30.5t-18.5 72.5zM559 1774q9 41 45.5 71.5t77.5 30.5q43 0 67 -30.5t15 -71.5q-8 -43 -43 -73t-78 -30q-42 0 -66.5 30.5t-17.5 72.5z" />
<glyph unicode="&#xd0;" horiz-adv-x="1572" d="M131 657l41 215h170l129 664h545q154 0 264.5 -43t171 -114t88.5 -172.5t26 -208t-26 -230.5q-69 -356 -287 -562t-522 -206h-559l127 657h-168zM453 236h323q197 0 340.5 149t188.5 383q16 84 19 156.5t-13 143.5t-53.5 121t-109.5 80.5t-173 30.5h-313l-84 -428h249 l-41 -215h-251z" />
<glyph unicode="&#xd1;" horiz-adv-x="1497" d="M23 0l299 1536h153l658 -1059l204 1059h236l-299 -1536h-154l-655 1057l-207 -1057h-235zM561 1647l127 229q47 20 75.5 30t66.5 17.5t73.5 2.5t75.5 -21q66 -28 120.5 -38t113 -1t101.5 22.5t122 44.5l-123 -227q-47 -20 -76 -30.5t-68 -18.5t-76 -3t-77 21 q-67 27 -121.5 37t-112 1.5t-101 -22.5t-120.5 -44z" />
<glyph unicode="&#xd2;" horiz-adv-x="1572" d="M117.5 517.5q-9.5 118.5 13.5 250.5q31 161 115 307.5t198.5 253t257.5 169.5t287 63q96 0 182 -28.5t152.5 -80t118.5 -124.5t79 -161t34.5 -189t-15.5 -210q-42 -215 -172.5 -398t-313.5 -289t-374 -106q-115 0 -215.5 40.5t-171.5 112.5t-118.5 171.5t-57 218z M365 768q-30 -152 8 -280.5t132 -202.5t222 -74q96 0 191.5 44t173 118.5t135.5 177.5t80 217q29 151 -9 279.5t-132 203t-222 74.5t-251 -74.5t-211 -203t-117 -279.5zM711 1968h297l161 -317h-235z" />
<glyph unicode="&#xd3;" horiz-adv-x="1572" d="M117.5 517.5q-9.5 118.5 13.5 250.5q31 161 115 307.5t198.5 253t257.5 169.5t287 63q96 0 182 -28.5t152.5 -80t118.5 -124.5t79 -161t34.5 -189t-15.5 -210q-42 -215 -172.5 -398t-313.5 -289t-374 -106q-115 0 -215.5 40.5t-171.5 112.5t-118.5 171.5t-57 218z M365 768q-30 -152 8 -280.5t132 -202.5t222 -74q96 0 191.5 44t173 118.5t135.5 177.5t80 217q29 151 -9 279.5t-132 203t-222 74.5t-251 -74.5t-211 -203t-117 -279.5zM825 1651l289 317h297l-350 -317h-236z" />
<glyph unicode="&#xd4;" horiz-adv-x="1572" d="M117.5 517.5q-9.5 118.5 13.5 250.5q31 161 115 307.5t198.5 253t257.5 169.5t287 63q96 0 182 -28.5t152.5 -80t118.5 -124.5t79 -161t34.5 -189t-15.5 -210q-42 -215 -172.5 -398t-313.5 -289t-374 -106q-115 0 -215.5 40.5t-171.5 112.5t-118.5 171.5t-57 218z M365 768q-30 -152 8 -280.5t132 -202.5t222 -74q96 0 191.5 44t173 118.5t135.5 177.5t80 217q24 115 4.5 216.5t-67.5 177t-127 119.5t-175 44q-128 0 -250.5 -74.5t-210 -203t-116.5 -279.5zM621 1651l362 276h154l252 -276h-215l-140 145l-198 -145h-215z" />
<glyph unicode="&#xd5;" horiz-adv-x="1572" d="M131 768q42 215 172 397.5t313 289t375 106.5q191 0 332.5 -106.5t200 -289.5t16.5 -397q-41 -215 -171 -398t-313 -289t-374 -106q-192 0 -333.5 106t-200 288.5t-17.5 398.5zM365 768q-29 -152 9 -280t131.5 -202.5t221.5 -74.5q195 0 365.5 163t214.5 394 q29 151 -9 279.5t-132 203t-222 74.5t-251 -74.5t-211 -203t-117 -279.5zM608 1667l127 229q47 20 75.5 30t66.5 17.5t73.5 2.5t75.5 -21q66 -28 120.5 -38t113 -0.5t101 23t122.5 44.5l-123 -228q-62 -27 -100.5 -39t-91 -12t-105.5 21q-67 27 -121.5 37t-112 1t-101 -22.5 t-120.5 -44.5z" />
<glyph unicode="&#xd6;" horiz-adv-x="1572" d="M118 517.5q-10 118.5 13 250.5q31 161 115 307.5t198.5 253t257.5 169.5t287 63q96 0 182 -28.5t152.5 -80t118.5 -124.5t79 -161t34.5 -189t-15.5 -210q-32 -161 -116 -308t-199 -253t-257.5 -169t-285.5 -63q-115 0 -215.5 40.5t-172 112.5t-119 171.5t-57.5 218z M365 768q-29 -152 9 -280t131.5 -202.5t221.5 -74.5q195 0 365.5 163t214.5 394q29 151 -9 279.5t-132 203t-222 74.5t-251 -74.5t-211 -203t-117 -279.5zM774 1774q9 42 45 72t78 30q43 0 67 -29.5t15 -72.5q-8 -43 -43 -73t-78 -30q-42 0 -66.5 30.5t-17.5 72.5z M1081 1774q9 41 45.5 71.5t77.5 30.5q43 0 67 -30.5t15 -71.5q-8 -43 -43 -73t-78 -30q-42 0 -66.5 30.5t-17.5 72.5z" />
<glyph unicode="&#xd7;" horiz-adv-x="1122" d="M49 238l348 292l-233 291l196 166l238 -291l346 291l135 -166l-348 -291l234 -292l-197 -166l-236 290l-348 -290z" />
<glyph unicode="&#xd8;" horiz-adv-x="1597" d="M-8 0l231 246q-131 222 -73 522q31 159 114.5 305t197 251.5t255.5 168.5t284 63q202 0 347 -120l94 100h262l-231 -246q63 -106 82 -238.5t-9 -283.5q-31 -160 -115 -306t-198 -251.5t-255.5 -168t-283.5 -62.5q-201 0 -344 118l-92 -98h-266zM381 768q-36 -179 27 -328 l761 807q-91 72 -215 72q-127 0 -248.5 -73.5t-208.5 -200.5t-116 -277zM526 287q92 -70 215 -70q127 0 249 73t209 200t116 278q36 179 -27 326z" />
<glyph unicode="&#xd9;" horiz-adv-x="1433" d="M135 578l187 958h235l-186 -958q-31 -165 47 -264t239 -99q162 0 280 98t150 262l187 961h235l-186 -961q-23 -118 -88.5 -226.5t-159 -190t-215 -130t-248.5 -48.5q-169 0 -290 83.5t-169 220t-18 294.5zM676 1968h297l164 -317h-236z" />
<glyph unicode="&#xda;" horiz-adv-x="1433" d="M135 578l187 958h235l-186 -958q-31 -165 47 -264t239 -99q162 0 280 98t150 262l187 961h235l-186 -961q-23 -118 -88.5 -226.5t-159 -190t-215 -130t-248.5 -48.5q-169 0 -290 83.5t-169 220t-18 294.5zM780 1651l287 317h297l-348 -317h-236z" />
<glyph unicode="&#xdb;" horiz-adv-x="1433" d="M135 578l187 958h235l-186 -958q-31 -165 47 -264t239 -99q162 0 280 98t150 262l187 961h235l-186 -961q-23 -118 -88.5 -226.5t-159 -190t-215 -130t-248.5 -48.5q-169 0 -290 83.5t-169 220t-18 294.5zM555 1651l360 276h154l254 -276h-215l-139 145l-199 -145h-215z " />
<glyph unicode="&#xdc;" horiz-adv-x="1433" d="M135 578l187 958h235l-186 -958q-32 -164 45.5 -263.5t238.5 -99.5q162 0 281 98.5t151 261.5l187 961h235l-186 -961q-23 -118 -89.5 -226.5t-160 -190t-215 -130t-248.5 -48.5q-169 0 -289.5 83.5t-168 220t-17.5 294.5zM705 1774q9 43 45 72.5t77 29.5q43 0 67 -29.5 t15 -72.5q-8 -43 -43 -73t-78 -30q-41 0 -65.5 30t-17.5 73zM1012 1774q9 41 45.5 71.5t77.5 30.5q43 0 67 -30.5t15 -71.5q-8 -43 -43 -73t-78 -30q-42 0 -66.5 30.5t-17.5 72.5z" />
<glyph unicode="&#xdd;" horiz-adv-x="1429" d="M225 1536h277l282 -666l543 666h275l-750 -928l-117 -608h-235l116 608zM784 1651l287 317h297l-348 -317h-236z" />
<glyph unicode="&#xde;" horiz-adv-x="1112" d="M23 0l299 1538h235l-51 -266h201q99 0 179.5 -39t128.5 -102.5t67 -145t3 -166.5q-14 -71 -57.5 -147.5t-111.5 -146.5t-169.5 -115t-216.5 -45h-200l-72 -365h-235zM375 600h200q104 0 179.5 59t95.5 160q20 105 -30.5 161t-160.5 56h-200z" />
<glyph unicode="&#xdf;" horiz-adv-x="1253" d="M31 31l190 985q59 298 252 462q146 123 316 131q151 7 245 -80q108 -101 82 -279q-2 -10 -4 -21q-11 -54 -41 -101.5t-68 -80t-81 -64t-79.5 -55t-63 -51t-31.5 -54.5q-5 -28 17 -50.5t61.5 -38.5t87.5 -37.5t93.5 -47.5t81 -68.5t49.5 -100t-1 -142.5q-21 -109 -71 -186 t-113.5 -115.5t-139.5 -56.5t-147 -15.5t-138 14.5t-112 26.5t-68 27.5l47 241q455 -207 506 64q8 41 -12.5 71t-59.5 49.5t-86.5 38t-94.5 43.5t-83 58.5t-52 91t-1 133.5q10 51 49 99t88 85t98 72t86 74t44 76q18 96 -43 137q-58 39 -143 4q-104 -44 -172 -172 q-42 -80 -62 -182l-207 -1067z" />
<glyph unicode="&#xe0;" horiz-adv-x="1009" d="M36 235q-3 40 7 80q19 98 75 171t137.5 111t183.5 46.5t212 -22.5q7 35 7.5 63t-6 49.5t-17.5 37.5t-30.5 26t-41 16t-53.5 7.5t-63 0t-74 -7t-83 -11.5t-93 -16l86 220q52 14 107 22.5t118.5 10.5t121 -5t109.5 -29.5t87.5 -58.5t52.5 -95.5t8 -137.5q-8 -60 -30 -145.5 t-34 -136.5t-4 -116.5t47 -121.5l-114 -213q-60 7 -115 83q-60 -39 -136 -60t-139 -21q-68 0 -123.5 13.5t-91.5 37t-62 56t-36 69.5t-13 77zM279 315q-13 -64 28 -93.5t118 -19.5t167 56q0 77 14 156q-55 19 -105 26t-97.5 1t-81 -38t-43.5 -88zM381 1481h297l164 -318 h-236z" />
<glyph unicode="&#xe1;" horiz-adv-x="1009" d="M36 235q-3 40 7 80q19 98 75 171t137.5 111t183.5 46.5t212 -22.5q7 35 7.5 63t-6 49.5t-17.5 37.5t-30.5 26t-41 16t-53.5 7.5t-63 0t-74 -7t-83 -11.5t-93 -16l86 220q52 14 107 22.5t118.5 10.5t121 -5t109.5 -29.5t87.5 -58.5t52.5 -95.5t8 -137.5q-8 -60 -30 -145.5 t-34 -136.5t-4 -116.5t47 -121.5l-114 -213q-60 7 -115 83q-60 -39 -136 -60t-139 -21q-68 0 -123.5 13.5t-91.5 37t-62 56t-36 69.5t-13 77zM279 315q-13 -64 28 -93.5t118 -19.5t167 56q0 77 14 156q-55 19 -105 26t-97.5 1t-81 -38t-43.5 -88zM412 1163l286 318h297 l-348 -318h-235z" />
<glyph unicode="&#xe2;" horiz-adv-x="1009" d="M36 235q-3 40 7 80q19 98 75 171t137.5 111t183.5 46.5t212 -22.5q7 35 7.5 63t-6 49.5t-17.5 37.5t-30.5 26t-41 16t-53.5 7.5t-63 0t-74 -7t-83 -11.5t-93 -16l86 220q52 14 107 22.5t118.5 10.5t121 -5t109.5 -29.5t87.5 -58.5t52.5 -95.5t8 -137.5q-8 -60 -30 -145.5 t-34 -136.5t-4 -116.5t47 -121.5l-114 -213q-60 7 -115 83q-60 -39 -136 -60t-139 -21q-68 0 -123.5 13.5t-91.5 37t-62 56t-36 69.5t-13 77zM248 1163l360 277h154l254 -277h-215l-139 146l-199 -146h-215zM279 315q-13 -64 28 -93.5t118 -19.5t167 56q0 88 14 156 q-55 19 -105 26t-97.5 1t-81 -38t-43.5 -88z" />
<glyph unicode="&#xe4;" horiz-adv-x="1009" d="M36 235q-3 40 7 80q19 98 75 171t137.5 111t183.5 46.5t212 -22.5q7 35 7.5 63t-6 49.5t-17.5 37.5t-30.5 26t-41 16t-53 7.5t-63 0t-74 -7t-82.5 -11.5t-92 -16l84 220q52 14 107 22.5t119 10.5t121 -5t109 -29.5t88 -58.5t53.5 -95.5t8.5 -137.5q-8 -60 -30.5 -145.5 t-34.5 -136.5t-4.5 -116.5t46.5 -121.5l-114 -213q-55 7 -115 83q-58 -39 -134.5 -60t-140.5 -21q-68 0 -123 13.5t-91 37t-62.5 56t-36.5 69.5t-13 77zM279 315q-12 -64 29.5 -93.5t118.5 -19.5t167 56q-3 73 12 156q-54 19 -103.5 26t-97.5 1t-81.5 -38t-44.5 -88z M412 1266q9 42 45 72t78 30q43 0 66.5 -29.5t14.5 -72.5q-7 -43 -43 -73t-79 -30q-41 0 -65 30t-17 73zM719 1266q7 41 44.5 71.5t78.5 30.5q42 0 66 -30t16 -72q-7 -43 -43.5 -73t-79.5 -30q-41 0 -65 30t-17 73z" />
<glyph unicode="&#xe5;" horiz-adv-x="1009" d="M36 235q-3 40 7 80q19 98 75 171t137.5 111t183.5 46.5t212 -22.5q7 35 7.5 63t-6 49.5t-17.5 37.5t-30.5 26t-41 16t-53 7.5t-63 0t-74 -7t-82.5 -11.5t-92 -16l86 220q51 14 106 22.5t118.5 10.5t120.5 -5t109 -29.5t88 -58.5t53.5 -95.5t8.5 -137.5q-8 -60 -30 -145.5 t-34 -136.5t-4.5 -116.5t45.5 -121.5l-114 -213q-55 7 -115 83q-58 -39 -134.5 -60t-140.5 -21q-68 0 -123 13.5t-91 37t-62.5 56t-36.5 69.5t-13 77zM279 315q-12 -64 29.5 -93.5t118.5 -19.5t167 56q-3 73 12 156q-54 19 -103.5 26t-97.5 1t-81.5 -38t-44.5 -88zM446 1393 q19 95 98 160t173 65t146.5 -65t33.5 -160t-96.5 -160.5t-171.5 -65.5t-148 65.5t-35 160.5zM600 1393q-5 -29 12.5 -50.5t46.5 -21.5t54.5 21.5t29.5 50.5q6 29 -11 50t-46 21t-54.5 -21t-31.5 -50z" />
<glyph unicode="&#xe6;" horiz-adv-x="1638" d="M36.5 235q-3.5 40 6.5 80q19 98 76 171t138 111t183 46.5t211 -22.5q7 35 8 63t-5.5 49.5t-17 37.5t-30 26t-41 16t-53.5 7.5t-63 0t-74 -7t-83 -11.5t-93 -16l86 220q71 19 148 27t159.5 4.5t152.5 -34.5t107 -88q160 129 371 129q96 0 167.5 -29.5t112.5 -80t61 -117 t16.5 -141.5t-24 -152t-57.5 -149h-645q1 -51 32.5 -89.5t87.5 -58.5t127.5 -23.5t158 14.5t172.5 56l-80 -251q-460 -122 -641 71q-191 -112 -346 -112q-68 0 -123.5 13.5t-92 37t-62.5 56t-36.5 69.5t-14 77zM279 315q-15 -78 59 -101q85 -25 219 31q32 13 64 31 q-14 77 -11 138q-55 19 -105 26t-98.5 1t-82.5 -38t-45 -88zM887 610h450q23 71 -24.5 134t-136.5 63q-201 0 -289 -197z" />
<glyph unicode="&#xe7;" horiz-adv-x="937" d="M82 510q38 195 156 333t287 182.5t374 -26.5v-251q-98 57 -196 67t-176.5 -22.5t-135 -106t-76.5 -176.5q-20 -102 9 -175t94.5 -106t168 -23t222.5 68l-96 -251q-94 -30 -178 -39q11 -42 2 -97q-19 -95 -98 -160t-173 -65h-18l-17 168q25 -14 66 -14q29 0 54.5 21 t31.5 50q13 67 -84 99l6 16q-142 47 -201 182.5t-22 325.5z" />
<glyph unicode="&#xe8;" horiz-adv-x="1107" d="M70.5 411.5q2.5 48.5 11.5 98.5q46 240 209.5 387t390.5 147q114 0 194 -42t117.5 -111t45.5 -156.5t-13.5 -180t-67.5 -179.5h-645q1 -51 32.5 -89.5t87.5 -58.5t127.5 -23.5t158 14.5t172.5 56l-80 -251q-110 -29 -204.5 -39.5t-166 -4t-130 27t-99 51.5t-70 72 t-45 86.5t-22 96t-4 99zM348 610h451q21 71 -27 134t-137 63q-202 0 -287 -197zM436 1481h299l164 -318h-235z" />
<glyph unicode="&#xe9;" horiz-adv-x="1107" d="M70.5 411.5q2.5 48.5 11.5 98.5q46 240 209.5 387t390.5 147q114 0 194 -42t117.5 -111t45.5 -156.5t-13.5 -180t-67.5 -179.5h-645q1 -51 32.5 -89.5t87.5 -58.5t127.5 -23.5t158 14.5t172.5 56l-80 -251q-110 -29 -204.5 -39.5t-166 -4t-130 27t-99 51.5t-70 72 t-45 86.5t-22 96t-4 99zM348 610h451q21 71 -27 134t-137 63q-202 0 -287 -197zM543 1163l286 318h297l-348 -318h-235z" />
<glyph unicode="&#xea;" horiz-adv-x="1107" d="M70.5 411.5q2.5 48.5 11.5 98.5q46 240 209.5 387t390.5 147q114 0 194 -42t117.5 -111t45.5 -156.5t-13.5 -180t-67.5 -179.5h-645q1 -51 32.5 -89.5t87.5 -58.5t127.5 -23.5t158 14.5t172.5 56l-80 -251q-110 -29 -204.5 -39.5t-166 -4t-130 27t-99 51.5t-70 72 t-45 86.5t-22 96t-4 99zM332 1163l360 277h154l254 -277h-215l-140 146l-198 -146h-215zM348 610h451q21 71 -27 134t-137 63q-202 0 -287 -197z" />
<glyph unicode="&#xeb;" horiz-adv-x="1105" d="M68.5 383.5q0.5 62.5 13.5 126.5q46 240 208.5 387t389.5 147q114 0 194 -42t117 -111t45.5 -156.5t-12.5 -180t-66 -179.5h-645q0 -51 31.5 -89.5t87.5 -58.5t127.5 -23.5t157.5 14.5t172 56l-80 -251q-140 -37 -255 -44t-194 12t-137.5 58.5t-91 92t-48 116t-15 126z M346 610h451q23 71 -25 134t-137 63q-201 0 -289 -197zM459 1266q9 42 45 72t78 30q43 0 67 -29.5t15 -72.5q-8 -43 -43 -73t-78 -30q-42 0 -66.5 30.5t-17.5 72.5zM766 1266q9 41 45.5 71.5t77.5 30.5q43 0 67 -30.5t15 -71.5q-8 -43 -43 -73t-78 -30q-42 0 -66.5 30.5 t-17.5 72.5z" />
<glyph unicode="&#xec;" d="M45 0l195 993l243 51l-202 -1044h-236zM94 1481h299l164 -318h-235z" />
<glyph unicode="&#xed;" d="M45 0l195 993l243 51l-202 -1044h-236zM221 1163l287 318h297l-348 -318h-236z" />
<glyph unicode="&#xee;" d="M4 1163l361 277h153l254 -277h-215l-139 146l-199 -146h-215zM45 0l195 993l243 51l-202 -1044h-236z" />
<glyph unicode="&#xef;" horiz-adv-x="481" d="M25 0l194 993l244 51l-203 -1044h-235zM131 1266q9 42 46 72t79 30q43 0 67 -29.5t15 -72.5q-7 -43 -43.5 -73t-79.5 -30q-42 0 -66.5 30.5t-17.5 72.5zM440 1266q7 41 44.5 71.5t78.5 30.5q42 0 66 -30t16 -72q-7 -43 -43.5 -73t-79.5 -30q-41 0 -65 30t-17 73z" />
<glyph unicode="&#xf0;" horiz-adv-x="1159" d="M82 512q42 219 215 372.5t387 153.5q76 0 124 -17.5t83 -55.5q34 174 -31 278l-180 -129l-90 141l125 91q-118 29 -269 -23l132 231q211 49 370 -41l189 136l92 -140l-156 -112q104 -159 60 -391l-152 -781q-115 -113 -234.5 -176t-267.5 -63q-141 0 -242.5 71.5 t-141.5 191.5t-13 263zM317 512q-24 -125 31.5 -208t175.5 -83q116 0 246 127l64 320q-34 62 -84.5 98.5t-110.5 36.5q-120 0 -208.5 -82.5t-113.5 -208.5z" />
<glyph unicode="&#xf1;" horiz-adv-x="1118" d="M25 0l192 993l246 51l-27 -129q226 145 365.5 136.5t192 -139t10.5 -349.5l-109 -563h-236l109 563q8 38 9 71.5t-4 61t-16 48t-29 32.5t-41.5 15.5t-55.5 -4t-69 -25.5t-82.5 -49.5t-96.5 -75.5l-123 -637h-235zM283 1176l129 229q45 20 74.5 30.5t66.5 17.5t73.5 2 t75.5 -21q65 -28 119.5 -38t112.5 -1t102 22.5t121 44.5l-121 -227q-47 -20 -76 -30.5t-68 -18.5t-76 -3t-77 21q-67 27 -121.5 37t-112 1.5t-101 -22t-121.5 -44.5z" />
<glyph unicode="&#xf2;" horiz-adv-x="1179" d="M82 512q21 109 78.5 207t138 169.5t184 113.5t211.5 42q144 0 247 -71.5t144 -193t13 -267.5q-27 -145 -115.5 -267t-220 -193.5t-275.5 -71.5t-247 71.5t-144 193t-14 267.5zM317 512q-23 -123 39 -210t176 -87q113 0 210 87t120 210q25 123 -38.5 210t-176.5 87 q-114 0 -209.5 -86.5t-120.5 -210.5zM436 1481h299l164 -318h-235z" />
<glyph unicode="&#xf3;" horiz-adv-x="1179" d="M82 512q21 109 78.5 207t138 169.5t184 113.5t211.5 42q144 0 247 -71.5t144 -193t13 -267.5q-27 -145 -115.5 -267t-220 -193.5t-275.5 -71.5t-247 71.5t-144 193t-14 267.5zM317 512q-23 -123 39 -210t176 -87q113 0 210 87t120 210q25 123 -38.5 210t-176.5 87 q-114 0 -209.5 -86.5t-120.5 -210.5zM543 1163l286 318h297l-348 -318h-235z" />
<glyph unicode="&#xf4;" horiz-adv-x="1179" d="M82 512q21 109 78.5 207t138 169.5t184 113.5t211.5 42q144 0 247 -71.5t144 -193t13 -267.5q-28 -145 -116.5 -267t-219.5 -193.5t-275 -71.5t-247.5 71.5t-144.5 193.5t-13 267zM317 512q-23 -123 39 -210t176 -87q113 0 210 87t120 210q25 123 -38.5 210t-176.5 87 q-114 0 -209.5 -86.5t-120.5 -210.5zM332 1163l360 277h154l254 -277h-215l-140 146l-198 -146h-215z" />
<glyph unicode="&#xf5;" horiz-adv-x="1179" d="M82 512q21 109 78.5 207t138 169.5t184 113.5t211.5 42q144 0 247 -71.5t144 -193t13 -267.5q-28 -145 -116.5 -267t-219.5 -193.5t-275 -71.5t-247.5 71.5t-144.5 193.5t-13 267zM309 1176l129 229q45 20 74.5 30.5t67 17.5t74 2t75.5 -21q65 -28 119.5 -38t112.5 -1 t102 22.5t121 44.5l-121 -227q-47 -20 -76 -30.5t-68 -18.5t-76 -3t-77 21q-67 27 -121.5 37t-112.5 1.5t-101.5 -22.5t-121.5 -44zM317 512q-23 -123 39 -210t176 -87q113 0 210 87t120 210q25 123 -38.5 210t-176.5 87q-114 0 -209.5 -86.5t-120.5 -210.5z" />
<glyph unicode="&#xf6;" horiz-adv-x="1179" d="M82 512q28 146 116 267.5t219 193t275 71.5q145 0 248 -71t144.5 -193t13.5 -268q-28 -145 -117 -267t-220.5 -193.5t-275.5 -71.5t-247 71.5t-143.5 193t-12.5 267.5zM317 512q-25 -123 37 -210t176 -87q113 0 210 87t122 210q23 123 -40 210t-175 87q-114 0 -210.5 -87 t-119.5 -210zM479 1266q9 42 45 72t78 30q43 0 67 -29.5t15 -72.5q-7 -43 -43.5 -73t-79.5 -30q-41 0 -65 30t-17 73zM786 1266q7 41 44.5 71.5t78.5 30.5q42 0 66 -30t16 -72q-7 -43 -43.5 -73t-79.5 -30q-41 0 -65 30t-17 73z" />
<glyph unicode="&#xf7;" horiz-adv-x="1310" d="M51 459l45 235h1188l-45 -235h-1188zM428 131q12 63 65 108.5t117 45.5q63 0 100 -45.5t25 -108.5q-12 -64 -66.5 -109t-117.5 -45q-64 0 -99.5 44.5t-23.5 109.5zM600 1022q12 63 66 108.5t118 45.5q63 0 99 -45.5t24 -108.5q-12 -64 -65.5 -109t-116.5 -45 q-64 0 -100.5 44.5t-24.5 109.5z" />
<glyph unicode="&#xf8;" horiz-adv-x="1161" d="M-49 0l160 168q-90 150 -50 344q43 223 218.5 377.5t394.5 154.5q124 0 215 -51l31 31h262l-156 -164q91 -150 51 -348q-21 -109 -78.5 -206.5t-138 -169.5t-184 -114t-211.5 -42q-125 0 -217 53l-31 -33h-266zM297 512q-15 -74 4 -141l404 426q-37 12 -78 12 q-114 0 -209.5 -86.5t-120.5 -210.5zM432 229q35 -14 80 -14q112 0 208.5 87t121.5 210q15 80 -6 145z" />
<glyph unicode="&#xf9;" horiz-adv-x="1095" d="M85 258.5q2 71.5 19 155.5l115 590l244 51l-123 -639q-26 -133 23 -185q74 -77 281 91l69 59l125 643h235l-201 -1024h-235l20 102q-99 -62 -183 -95.5t-146.5 -39t-110.5 11.5t-77 55.5t-43 95.5t-12 128.5zM428 1481h299l164 -318h-236z" />
<glyph unicode="&#xfa;" horiz-adv-x="1095" d="M85 258.5q2 71.5 19 155.5l115 590l244 51l-123 -639q-26 -133 23 -185q74 -77 281 91l69 59l125 643h235l-201 -1024h-235l20 102q-99 -62 -183 -95.5t-146.5 -39t-110.5 11.5t-77 55.5t-43 95.5t-12 128.5zM535 1163l286 318h297l-348 -318h-235z" />
<glyph unicode="&#xfb;" horiz-adv-x="1095" d="M85 258.5q2 71.5 19 155.5l115 590l244 51l-123 -639q-26 -133 23 -185q72 -76 277 88q34 28 71 62l125 643h235l-199 -1024h-235l20 102q-99 -62 -183 -95.5t-146.5 -39t-110.5 11.5t-77 55.5t-43 95.5t-12 128.5zM305 1163l361 277h153l254 -277h-215l-139 146 l-199 -146h-215z" />
<glyph unicode="&#xfc;" horiz-adv-x="1097" d="M86 258.5q2 71.5 18 155.5l115 590l246 51l-125 -639q-26 -133 23 -185q74 -77 281 91l69 59l125 643h235l-199 -1024h-235l18 102q-99 -62 -182.5 -95.5t-146 -39t-110 11.5t-76.5 55.5t-43.5 95.5t-12.5 128.5zM444 1266q7 42 44 72t79 30q43 0 66.5 -29.5t15.5 -72.5 q-9 -43 -44.5 -73t-78.5 -30q-42 0 -66.5 30.5t-15.5 72.5zM752 1266q7 41 44 71.5t78 30.5q42 0 66 -30t16 -72q-9 -43 -44.5 -73t-77.5 -30t-66.5 30.5t-15.5 72.5z" />
<glyph unicode="&#xfd;" horiz-adv-x="1056" d="M6 -262q41 7 62.5 11.5t48 19t40 27.5t40 49.5t47 71t61.5 106.5l-178 1001h246l125 -668l387 668h245l-675 -1186q-43 -75 -86.5 -129.5t-79 -86t-82 -53t-78 -30.5t-84.5 -20zM459 1163l286 318h297l-348 -318h-235z" />
<glyph unicode="&#xfe;" horiz-adv-x="1085" d="M-59 -430l362 1864l246 51l-90 -465q105 25 199 18.5t166.5 -44t122 -104t64.5 -161.5t-7 -217q-21 -107 -74.5 -201t-127.5 -159.5t-164.5 -110t-186 -52t-191.5 14.5l-74 -383zM309 252q50 -28 109 -32t114.5 16t104 57.5t83.5 94.5t48 124q16 87 -7.5 155t-75.5 101 t-123.5 38t-151.5 -34z" />
<glyph unicode="&#xff;" horiz-adv-x="1056" d="M6 -262q41 7 62.5 11.5t48 19t40.5 27.5t40 49t47 72t61 106l-178 1001h246l127 -668l385 668h245l-673 -1186q-44 -75 -88 -129.5t-79.5 -86t-82 -53t-78 -30.5t-84.5 -20zM420 1266q7 42 44 72t79 30q43 0 66.5 -29.5t15.5 -72.5q-7 -43 -43.5 -73t-79.5 -30 q-41 0 -65 30t-17 73zM727 1266q7 41 44.5 71.5t78.5 30.5q42 0 66 -30t16 -72q-7 -43 -43.5 -73t-79.5 -30q-41 0 -65 30t-17 73z" />
<glyph unicode="&#x152;" horiz-adv-x="2150" d="M118.5 520q-10.5 117 12.5 248q31 159 114 304t197 250.5t255.5 167.5t283.5 62q189 0 328 -102l16 86h870l7 -236h-686l-82 -413h583l-45 -236h-583l-82 -415h686l-97 -236h-870l16 86q-178 -102 -364 -102q-114 0 -213.5 40t-170.5 111t-118 169.5t-57.5 215.5z M367 768q-47 -242 52 -395.5t304 -153.5q65 0 117.5 14t104.5 50.5t93 97t76.5 158t61.5 229.5t28 229.5t-15 158t-55 97t-85.5 50.5t-112.5 14q-205 0 -363.5 -153.5t-205.5 -395.5z" />
<glyph unicode="&#x153;" horiz-adv-x="1902" d="M123 512q28 143 119 264.5t219.5 191.5t263.5 70q108 0 195.5 -46.5t142.5 -127.5q174 180 424 180q96 0 167.5 -29.5t112.5 -80t61 -117t16.5 -141.5t-24 -152t-57.5 -149h-645q1 -51 32.5 -89.5t87.5 -58.5t127.5 -23.5t158 14.5t172.5 56l-80 -251 q-146 -38 -264 -44.5t-200 16.5t-136.5 64t-87.5 101q-87 -81 -193.5 -127.5t-214.5 -46.5q-135 0 -236 70.5t-144.5 191.5t-16.5 264zM358 512q-23 -120 38.5 -205.5t170.5 -85.5q110 0 203.5 85.5t116.5 205.5q23 122 -37 206.5t-170 84.5q-109 0 -204 -85t-118 -206z M1151 610h451q23 71 -25 134t-137 63q-201 0 -289 -197z" />
<glyph unicode="&#x178;" horiz-adv-x="1429" d="M225 1536h277l282 -666l543 666h275l-750 -928l-119 -608h-235l118 608zM702 1774q9 42 45 72t78 30q43 0 67 -29.5t15 -72.5q-8 -43 -43 -73t-78 -30q-42 0 -66.5 30.5t-17.5 72.5zM1010 1774q9 41 45.5 71.5t77.5 30.5q43 0 66.5 -30.5t14.5 -71.5q-8 -43 -42.5 -73 t-77.5 -30q-42 0 -66.5 30.5t-17.5 72.5z" />
<glyph unicode="&#x2c6;" horiz-adv-x="972" d="M293 1487l360 276h154l254 -276h-215l-139 145l-199 -145h-215z" />
<glyph unicode="&#x2dc;" horiz-adv-x="1026" d="M295 1503l129 230q60 26 98.5 38t89.5 11.5t103 -21.5q66 -28 120 -38t113 -0.5t101 23t122 44.5l-122 -227q-47 -20 -76 -30.5t-68 -18.5t-76 -3t-77 21q-67 27 -121.5 37t-112.5 1t-101 -22.5t-122 -44.5z" />
<glyph unicode="&#x2000;" horiz-adv-x="1050" />
<glyph unicode="&#x2001;" horiz-adv-x="2101" />
<glyph unicode="&#x2002;" horiz-adv-x="1050" />
<glyph unicode="&#x2003;" horiz-adv-x="2101" />
<glyph unicode="&#x2004;" horiz-adv-x="700" />
<glyph unicode="&#x2005;" horiz-adv-x="525" />
<glyph unicode="&#x2006;" horiz-adv-x="350" />
<glyph unicode="&#x2007;" horiz-adv-x="350" />
<glyph unicode="&#x2008;" horiz-adv-x="262" />
<glyph unicode="&#x2009;" horiz-adv-x="420" />
<glyph unicode="&#x200a;" horiz-adv-x="116" />
<glyph unicode="&#x2010;" horiz-adv-x="821" d="M80 494l45 235h655l-45 -235h-655z" />
<glyph unicode="&#x2011;" horiz-adv-x="821" d="M80 494l45 235h655l-45 -235h-655z" />
<glyph unicode="&#x2012;" horiz-adv-x="821" d="M80 494l45 235h655l-45 -235h-655z" />
<glyph unicode="&#x2013;" horiz-adv-x="1087" d="M80 494l45 235h922l-46 -235h-921z" />
<glyph unicode="&#x2014;" horiz-adv-x="1599" d="M80 494l45 235h1434l-46 -235h-1433z" />
<glyph unicode="&#x2018;" horiz-adv-x="333" d="M207 1260l180 419h256l-242 -419h-194z" />
<glyph unicode="&#x2019;" horiz-adv-x="333" d="M207 1260l180 419h256l-242 -419h-194z" />
<glyph unicode="&#x201a;" horiz-adv-x="337" d="M-160 -201l246 420h276l-307 -420h-215z" />
<glyph unicode="&#x201c;" horiz-adv-x="661" d="M207 1260l180 419h256l-242 -419h-194zM535 1260l180 419h256l-242 -419h-194z" />
<glyph unicode="&#x201d;" horiz-adv-x="661" d="M207 1260l180 419h256l-242 -419h-194zM535 1260l180 419h256l-242 -419h-194z" />
<glyph unicode="&#x201e;" horiz-adv-x="337" d="M-160 -201l246 420h276l-307 -420h-215z" />
<glyph unicode="&#x2022;" horiz-adv-x="909" d="M246 600q0 94 65.5 159.5t159.5 65.5q93 0 159 -66t66 -159t-66 -159t-159 -66q-94 0 -159.5 65.5t-65.5 159.5z" />
<glyph unicode="&#x2026;" horiz-adv-x="1351" d="M-23 131q12 63 66.5 108.5t118.5 45.5q63 0 99 -45.5t24 -108.5q-12 -64 -66.5 -109t-118.5 -45t-99.5 44.5t-23.5 109.5zM449 131q12 63 66 108.5t118 45.5q63 0 99 -45.5t24 -108.5q-12 -64 -66.5 -109t-118.5 -45t-99 44.5t-23 109.5zM920 131q12 63 66 108.5 t118 45.5q63 0 99 -45.5t24 -108.5q-12 -64 -66.5 -109t-118.5 -45t-99 44.5t-23 109.5z" />
<glyph unicode="&#x202f;" horiz-adv-x="420" />
<glyph unicode="&#x2039;" horiz-adv-x="790" d="M51 508l563 463l138 -176l-357 -287l246 -287l-207 -176z" />
<glyph unicode="&#x203a;" horiz-adv-x="788" d="M37 221l342 287l-232 287l193 176l397 -463l-577 -463z" />
<glyph unicode="&#x205f;" horiz-adv-x="525" />
<glyph unicode="&#x20ac;" horiz-adv-x="1392" d="M86 483l47 236h103l8 45q2 8 5 23.5t5 23.5h-104l47 236h145q115 225 311.5 360t401.5 141q165 3 340 -45v-243q-135 47 -258.5 50t-221.5 -32.5t-175 -93t-136 -137.5h508l-47 -236h-576l-10 -47q-6 -42 -6 -45h576l-48 -236h-507q27 -80 81 -138.5t138 -94.5 t209.5 -32.5t279.5 50.5l-94 -243q-196 -48 -356 -45q-204 6 -349 141.5t-172 361.5h-145z" />
<glyph unicode="&#xe000;" horiz-adv-x="1024" d="M0 0v1024h1024v-1024h-1024z" />
</font>
</defs>
</svg>
