<?xml version="1.0" standalone="no"?>
<!DOCTYPE svg PUBLIC "-//W3C//DTD SVG 1.1//EN" "http://www.w3.org/Graphics/SVG/1.1/DTD/svg11.dtd" >
<svg xmlns="http://www.w3.org/2000/svg">
<metadata></metadata>
<defs>
<font id="dimboitalic" horiz-adv-x="747" >
<font-face units-per-em="2048" ascent="1638" descent="-410" />
<missing-glyph horiz-adv-x="373" />
<glyph horiz-adv-x="2048" />
<glyph horiz-adv-x="2048" />
<glyph unicode="&#xd;" horiz-adv-x="2048" />
<glyph unicode=" "  horiz-adv-x="373" />
<glyph unicode="&#x09;" horiz-adv-x="373" />
<glyph unicode="&#xa0;" horiz-adv-x="373" />
<glyph unicode="!" horiz-adv-x="335" d="M52 170q0 10 1 21q9 61 58 104t109 43q61 0 98 -43q30 -35 30 -81q0 -11 -2 -23q-8 -60 -57 -103t-110 -43q-60 0 -97 43q-30 35 -30 82zM117 442q50 426 119 1011h264q-86 -509 -161 -1006z" />
<glyph unicode="&#x22;" horiz-adv-x="713" d="M212 1221q115 32 146 123q-73 26 -92 62q-14 27 -14 60q0 10 1 21q7 45 30.5 79.5t61.5 52.5t74 19h2q33 0 62 -12q29 -13 45 -39t20 -55q1 -14 1 -31q0 -18 -2 -40l-1 -4q-5 -40 -23 -88q-18 -51 -51.5 -97t-91 -87.5t-160.5 -49.5zM545 1171q115 32 146 123 q-73 26 -92 62q-14 27 -14 60q0 10 1 21q7 45 30.5 79.5t61.5 52.5t74 19h2q33 0 62 -12q29 -13 45 -39t20 -55q1 -14 1 -31q0 -18 -2 -40l-1 -4q-5 -40 -23 -88q-18 -51 -51.5 -97t-91 -87.5t-160.5 -49.5z" />
<glyph unicode="#" horiz-adv-x="1309" d="M87 334l67 209h199l134 420h-199l68 209h199l96 304h209l-97 -304h263l97 304h209l-97 -304h199l-68 -209h-199l-133 -420h199l-67 -209h-199l-97 -304h-210l98 304h-262l-98 -304h-209l97 304h-199zM562 543h262l135 420h-263z" />
<glyph unicode="$" horiz-adv-x="909" d="M106 326q0 77 14 173q5 36 12 75l300 20q-14 -62 -22 -112q-7 -49 -7 -87q0 -140 89 -140h4q137 4 157 146l1 9q1 10 1 20q0 141 -218 276q-189 117 -189 361q0 49 7 102l3 18q48 295 338 337l25 176h150l-25 -173q231 -28 231 -304q0 -54 -9 -119q-5 -35 -12 -72 l-263 -15q10 45 15 83q6 41 6 73q0 106 -67 106q-105 0 -131 -107q-3 -15 -5 -30q-3 -20 -3 -39q0 -67 33 -127q48 -89 186.5 -163t178.5 -203q20 -63 20 -131q0 -33 -5 -67q-6 -40 -18 -82q-44 -151 -163 -251q-90 -74 -211 -98l-25 -181h-150l24 172q-132 13 -212 116 q-60 76 -60 238z" />
<glyph unicode="%" horiz-adv-x="1700" d="M197 990q0 51 8 111l4 24q71 435 423 435q292 0 292 -293q0 -49 -8 -105q-2 -16 -6 -32q-74 -431 -423 -435q-4 -1 -8 -1q-282 0 -282 296zM426 998q1 -106 87 -110h8q80 0 121 79q35 66 47 156q3 22 6 45q1 22 1 41q0 84 -28 108q-23 18 -58 18q-20 0 -44 -6 q-65 -17 -103 -121q-22 -62 -31 -124q-6 -43 -6 -86zM567 50l657 1540l166 -30l-657 -1540zM1015 336q0 51 8 111l4 24q71 435 423 435q292 0 292 -293q0 -49 -8 -105q-2 -16 -6 -32q-74 -431 -423 -435q-4 -1 -8 -1q-282 0 -282 296zM1244 344q1 -106 87 -110h8 q80 0 121 79q35 66 47 156q3 22 6 45q1 22 1 41q0 84 -28 108q-23 18 -58 18q-20 0 -44 -6q-65 -17 -103 -121q-22 -62 -31 -124q-6 -43 -6 -86z" />
<glyph unicode="&#x26;" horiz-adv-x="936" d="M83 348v10q1 57 7 106q9 60 26 110q31 90 85 143.5t149 67.5q-107 37 -146 110q-22 41 -22 114q0 41 7 93l4 30q28 164 108 258t195 121q59 14 122 14q62 0 128 -13q135 -26 182 -136q21 -52 21 -130q0 -52 -9 -115q-6 -46 -18 -99l-253 -11q5 27 8 51q6 43 6 77 q0 127 -82 133h-13q-106 0 -133 -128q-5 -22 -8 -43q-4 -31 -4 -59q0 -68 25 -115q36 -72 161 -72q15 0 32 1l-39 -190q-143 0 -215 -78q-54 -58 -65 -137q-3 -19 -3 -39q0 -10 1 -20q5 -110 127 -110q8 0 17 1q103 6 128 183q8 57 8 130v17l366 16l-24 -204l-111 -7v-4 q-28 -199 -145 -289q-114 -88 -283 -88h-15q-181 4 -254 95q-71 87 -71 206z" />
<glyph unicode="'" horiz-adv-x="381" d="M212 1221q115 32 146 123q-73 26 -92 62q-14 27 -14 60q0 10 1 21q7 45 30.5 79.5t61.5 52.5t74 19h2q33 0 62 -12q29 -13 45 -39t20 -55q1 -14 1 -31q0 -18 -2 -40l-1 -4q-5 -40 -23 -88q-18 -51 -51.5 -97t-91 -87.5t-160.5 -49.5z" />
<glyph unicode="(" horiz-adv-x="553" d="M136 467q0 158 23 333q71 500 380 900h200q-256 -400 -327 -900q-31 -221 -31 -415q0 -332 91 -585h-200q-136 283 -136 667z" />
<glyph unicode=")" horiz-adv-x="553" d="M19 -200q256 400 341 1000q23 164 23 316q0 315 -97 584h200q145 -295 145 -645q0 -124 -18 -255q-90 -600 -394 -1000h-200z" />
<glyph unicode="*" horiz-adv-x="640" d="M227 1328l74 162l147 -67l16 173h168l-41 -177l189 68l8 -152l-171 -49l89 -147l-144 -78l-69 168l-118 -174l-128 78l145 160z" />
<glyph unicode="+" horiz-adv-x="920" d="M129 630l35 250h290l41 290h250l-41 -290h300l-35 -250h-300l-42 -300h-250l42 300h-290z" />
<glyph unicode="," horiz-adv-x="381" d="M29 -79q115 32 146 123q-73 26 -92 62q-14 27 -14 60q0 10 1 21q7 45 30.5 79.5t61.5 52.5t74 19h2q33 0 62 -12q29 -13 45 -39t20 -55q1 -14 1 -31q0 -18 -2 -40l-1 -4q-5 -40 -23 -88q-18 -51 -51.5 -97t-91 -87.5t-160.5 -49.5z" />
<glyph unicode="-" horiz-adv-x="580" d="M127 620l35 250h500l-35 -250h-500z" />
<glyph unicode="." horiz-adv-x="373" d="M65 170q0 10 1 21q9 61 58 104t109 43q61 0 98 -43q30 -35 30 -81q0 -11 -2 -23q-8 -60 -57 -103t-110 -43q-60 0 -97 43q-30 35 -30 82z" />
<glyph unicode="/" horiz-adv-x="600" d="M-24 -100l676 1750l173 -50l-686 -1750z" />
<glyph unicode="0" horiz-adv-x="896" d="M124 582q0 119 21 268q98 694 549 694q314 0 314 -455q0 -117 -21 -265q-101 -721 -524 -721q-339 0 -339 479zM389 591q0 -221 122 -221q172 0 234 447q18 126 18 216q0 231 -116 231q-161 0 -236 -447q-4 -27 -8 -52q-14 -100 -14 -174z" />
<glyph unicode="1" horiz-adv-x="603" d="M204 1345l303 176l267 -5q-73 -472 -139 -939q-33 -234 -64 -467l-249 -13q77 601 139 1113q-86 -17 -240 -84z" />
<glyph unicode="2" horiz-adv-x="855" d="M94 117l15 273q314 294 452 452q126 145 146 285l3 25q1 13 1 25q0 125 -105 125h-4q-101 -3 -126 -182q-5 -34 -7 -73l-250 5q4 60 11 111q25 179 101 258q97 101 229 121q47 7 91 7q79 0 149 -22q109 -35 153 -138q23 -56 23 -132q0 -41 -7 -88q-4 -26 -9 -55 q-36 -172 -148 -316.5t-374 -413.5l436 -3l-38 -251q-289 -13 -742 -13z" />
<glyph unicode="3" horiz-adv-x="824" d="M90 386q0 73 13 166l1 6l261 15q-4 -17 -6 -33q-6 -44 -6 -79q0 -132 86 -138q7 -1 14 -1q104 0 141 110q10 31 14 59q3 18 3 35q0 57 -29 102q-51 78 -194 78l15 190q17 -1 32 -1q125 0 182 72q53 67 69 174q2 21 4 43q1 10 1 19q0 109 -98 109h-13q-106 -7 -135 -210 q-3 -24 -6 -51l-251 11q4 53 10 99q23 159 83 245q76 110 219 136q70 13 132 13q63 0 118 -14q107 -27 161 -121q39 -69 39 -177q0 -38 -5 -81l-4 -30q-20 -142 -73 -207q-59 -73 -176 -110q91 -14 130 -67.5t44 -143.5q1 -14 1 -28q0 -38 -6 -82q-7 -49 -22 -106 q-33 -125 -132 -216t-280 -95h-16q-169 0 -258 88q-63 62 -63 221z" />
<glyph unicode="4" horiz-adv-x="921" d="M114 537l13 239q224 376 507 778l319 -18l-112 -772l140 -3l-33 -239h-137l-59 -421l-241 9l62 417zM379 766l230 -5l76 516q-146 -254 -306 -511z" />
<glyph unicode="5" horiz-adv-x="824" d="M91 403q0 48 8 104q3 18 6 38l238 20q-5 -39 -5 -71q0 -148 113 -148q137 0 167 131q13 61 22 123q10 71 13 143v15q0 116 -89 116h-6q-103 -5 -171 -159l-242 6l145 829l673 12l-31 -243l-446 -9l-66 -340q65 133 189 152q29 5 57 5q87 0 154 -46q81 -56 81 -253 q0 -16 -1 -33q-3 -77 -14 -151q-19 -140 -67 -265q-73 -191 -213 -237q-100 -33 -196 -33q-39 0 -78 6q-133 19 -199 117q-42 62 -42 171z" />
<glyph unicode="6" horiz-adv-x="885" d="M147 581q0 105 17 227q8 58 21 119q45 236 114 384.5t173 211.5q101 61 220 61h6q122 -2 195.5 -79t80.5 -210q1 -18 1 -35q0 -70 -10 -138q-6 -45 -16 -88h-224q7 35 11 65q7 53 7 92q0 100 -47 113q-18 4 -34 4q-58 0 -105 -59q-62 -76 -92 -210q-22 -91 -33 -167 q-5 -36 -7 -68q98 147 246 147h2q149 -1 212 -109q51 -88 51 -197q0 -26 -3 -53l-4 -25q-18 -129 -80 -257q-67 -140 -177 -186q-80 -35 -174 -35q-34 0 -70 5q-135 17 -201.5 126t-77.5 290q-2 34 -2 71zM411 515q0 -60 14 -98q23 -66 86 -76q9 -2 20 -2q50 0 95 41 q49 45 66 162l3 20q2 19 2 35q0 101 -73 121q-14 3 -28 3q-77 0 -178 -107q-7 -55 -7 -99z" />
<glyph unicode="7" horiz-adv-x="826" d="M238 175q120 543 444 1102l-439 -3l46 250q363 6 699 9l-36 -254q-358 -570 -481 -1131z" />
<glyph unicode="8" horiz-adv-x="820" d="M84 368q0 26 3 54l2 22q22 151 92 241q76 96 170 121q-63 27 -120 108q-44 60 -44 160q0 33 5 71l1 9q20 144 96 252q76 110 219 136q70 13 132 13q63 0 118 -14q107 -27 160 -121q41 -72 41 -180q0 -32 -4 -68l-4 -29q-19 -134 -74 -208q-60 -83 -159 -130 q128 -61 144 -176q6 -40 6 -81t-6 -83q-5 -38 -15 -77q-33 -125 -132.5 -216t-279.5 -95h-16q-169 0 -258 88q-77 76 -77 203zM352 453q0 -8 1 -16q5 -66 40 -94q25 -21 62 -21q14 0 31 3q57 10 88 48.5t44 106.5q3 8 4 17q3 19 3 37q0 38 -12 73q-19 60 -98 97 q-110 -54 -138 -128q-16 -42 -21 -81q-4 -21 -4 -42zM455 1100q0 -101 93 -144q111 45 142 145q12 38 17 70q2 18 2 33q0 29 -8 51q-19 55 -86 59h-9q-62 0 -105 -52q-34 -42 -43 -108q-3 -24 -3 -52v-2z" />
<glyph unicode="9" horiz-adv-x="885" d="M161 392q0 59 10 132l2 15h224q-5 -23 -8 -44q-4 -25 -4 -46q0 -73 44 -99q26 -18 55 -18q40 0 83 33q72 55 98 180q14 69 22 130q7 50 10 94q-98 -147 -246 -147q-1 0 -1 1q-150 0 -218 109q-51 81 -51 208q0 43 6 92q1 14 3 29q25 173 92 302q73 140 192 187 q88 34 178 34q33 0 66 -5q125 -17 191.5 -126t77.5 -289q2 -35 2 -71q0 -106 -17 -228q-8 -58 -20 -118q-46 -237 -115 -385.5t-172 -210.5q-102 -62 -230 -62q-3 0 -6 1q-133 1 -213 98q-55 66 -55 204zM429 989q0 -123 91 -133q9 -2 20 -2q95 0 174 105q6 34 10 64 q10 72 10 125q0 54 -10 89q-26 85 -87 95q-9 1 -17 1q-54 0 -107 -55q-56 -59 -78 -213l-3 -24q-3 -28 -3 -52z" />
<glyph unicode=":" horiz-adv-x="373" d="M65 170q0 10 1 21q9 61 58 104t109 43q61 0 98 -43q30 -35 30 -81q0 -11 -2 -23q-8 -60 -57 -103t-110 -43q-60 0 -97 43q-30 35 -30 82zM172 931q0 10 1 21q9 61 58 104t109 43q61 0 98 -43q30 -35 30 -81q0 -11 -2 -23q-8 -60 -57 -103t-110 -43q-60 0 -97 43 q-30 35 -30 82z" />
<glyph unicode=";" horiz-adv-x="381" d="M29 -79q115 32 146 123q-73 26 -92 62q-14 27 -14 60q0 10 1 21q7 45 30.5 79.5t61.5 52.5t74 19h2q33 0 62 -12q29 -13 45 -39t20 -55q1 -14 1 -31q0 -18 -2 -40l-1 -4q-5 -40 -23 -88q-18 -51 -51.5 -97t-91 -87.5t-160.5 -49.5zM172 929q0 11 2 23q8 61 57.5 104 t109.5 43q61 0 98 -43q29 -35 29 -83q0 -10 -1 -21q-9 -60 -58 -103t-110 -43q-60 0 -97 43q-30 35 -30 80z" />
<glyph unicode="&#x3c;" horiz-adv-x="780" d="M138 700l28 200l763 450l-42 -300l-455 -250l385 -250l-42 -300z" />
<glyph unicode="=" horiz-adv-x="880" d="M99 420l35 250h800l-35 -250h-800zM169 920l35 250h800l-35 -250h-800z" />
<glyph unicode="&#x3e;" horiz-adv-x="780" d="M75 250l42 300l455 250l-385 250l43 300l636 -450l-28 -200z" />
<glyph unicode="?" horiz-adv-x="855" d="M213 1002q3 60 11 111q25 179 101 258q97 101 229 121q47 7 91 7q79 0 149 -22q109 -35 152 -138q25 -61 25 -144q0 -43 -7 -93l-5 -33q-30 -167 -107 -276.5t-209 -158.5l-28 -183l-214 -4l44 333q165 24 218 142q36 82 47 160q5 33 5 65q-1 105 -115 105h-5 q-100 -3 -125 -182q-5 -34 -8 -73zM333 170q0 10 1 21q9 61 58 104t109 43q61 0 98 -43q30 -35 30 -81q0 -11 -2 -23q-8 -60 -57 -103t-110 -43q-60 0 -97 43q-30 35 -30 82z" />
<glyph unicode="@" horiz-adv-x="1454" d="M98 343q0 102 15 210q17 117 50 241q99 364 313 493q205 124 473 124h21q281 -5 423 -147q126 -127 126 -417q0 -35 -2 -72q-7 -111 -21 -208q-29 -208 -93 -354q-96 -216 -344 -243q-30 -4 -56 -4q-183 0 -183 164v18q-105 -106 -201 -109q-7 -1 -13 -1q-87 0 -145 43 q-64 45 -87 140q-17 69 -17 155q0 33 2 68q3 47 10 95q11 81 33 165q34 132 115.5 233.5t228.5 109.5h18q133 0 187 -105l28 154l216 4q-46 -325 -76 -535q-49 -350 -50 -379v-5q0 -41 34 -41q1 0 4 1q38 1 102.5 70.5t104.5 262.5q10 46 17 95q16 113 16 234q0 41 -2 82 q-10 218 -129.5 285.5t-303.5 71.5h-18q-172 0 -300 -72q-135 -77 -202 -241t-99 -366q-4 -19 -6 -38q-15 -101 -15 -193q0 -70 9 -134q20 -163 161 -262q91 -64 311 -64q118 0 272 18l-11 -166q-161 -20 -292 -20q-213 0 -344 53q-215 84 -263 379q-17 100 -17 207z M595 411q0 -109 48 -141q22 -16 50 -16q62 0 147 76l57 406q-35 99 -110 99q-15 0 -31 -4q-101 -23 -145 -267q-5 -26 -8 -50q-8 -58 -8 -103z" />
<glyph unicode="A" horiz-adv-x="960" d="M-5 90q308 854 508 1448l375 6q51 -618 118 -1408l-263 -52l-28 379h-311l-141 -409zM412 737l325 7q-22 216 -97 517q-127 -253 -228 -524z" />
<glyph unicode="B" horiz-adv-x="917" d="M67 85q43 279 81 549q66 466 115 905q173 18 301 18q235 0 317 -61q123 -91 123 -244v-10q-2 -41 -7 -79q-16 -109 -64 -189q-66 -109 -203 -156q142 -22 193 -105q30 -49 30 -129q0 -33 -5 -71q-3 -25 -9 -52q-36 -170 -143.5 -254t-281.5 -115q-98 -17 -227 -17 q-101 0 -220 10zM379 339q23 -1 44 -1q186 0 249 102q35 57 41 103q2 11 2 21q0 32 -17 58q-35 55 -192 55q-37 0 -80 -3zM443 880q187 10 254 127q35 62 44 122q2 18 2 35q0 32 -8 64q-23 85 -167 85q-32 0 -72 -4z" />
<glyph unicode="C" horiz-adv-x="885" d="M138 517q0 124 22 281q102 724 498 724q315 0 315 -346q0 -63 -10 -138q-4 -29 -10 -60l-222 -1l4 27q7 47 7 85q0 150 -106 150q-141 0 -202 -434q-22 -155 -22 -261q0 -228 101 -228h1q148 1 182 240l14 99h248l-11 -75q-70 -498 -482 -521q-12 -1 -24 -1 q-303 0 -303 459z" />
<glyph unicode="D" horiz-adv-x="875" d="M60 88q49 337 100 694q50 358 101 735q117 14 214 14q270 0 383 -108q116 -113 116 -371q0 -81 -11 -176l-10 -72q-48 -342 -135 -488q-96 -161 -297 -214q-116 -31 -250 -31q-100 0 -211 17zM332 367q34 -8 66 -8q88 0 157 61q93 82 133 368l1 4q14 107 14 187 q0 134 -41 191q-51 68 -135 68q-27 0 -58 -7q-64 -329 -107 -636q-16 -116 -30 -228z" />
<glyph unicode="E" horiz-adv-x="798" d="M73 107q50 281 91 566q55 395 91 797q227 9 637 20l-39 -282l-393 16l-46 -328l356 10l-29 -271h-317l-35 -254h415l-40 -284z" />
<glyph unicode="F" horiz-adv-x="731" d="M76 127q50 281 91 566q55 395 91 797q227 10 638 21l-40 -282l-393 15l-53 -375l357 9l-30 -271h-317l-69 -493z" />
<glyph unicode="G" horiz-adv-x="981" d="M106 456q0 92 16 204q7 51 18 107q137 721 565 751q21 1 40 1q297 0 297 -336q0 -64 -11 -140q-6 -40 -15 -84l-227 -2q6 52 6 94q0 163 -96 173h-18q-110 0 -199 -145q-88 -145 -126 -411l-6 -44q-5 -45 -5 -83q0 -215 172 -215q140 0 172 228q4 23 6 47l-199 -3l41 225 l510 -8l-34 -245l-103 -2q-73 -522 -489 -522q-315 0 -315 410z" />
<glyph unicode="H" horiz-adv-x="904" d="M60 82q64 367 113 718q49 350 84 684h261l-93 -583l283 -12l87 619l270 -24q-107 -673 -227 -1450h-227l82 583h-285l-75 -536z" />
<glyph unicode="I" horiz-adv-x="381" d="M87 104q103 734 170 1378l288 24q-106 -679 -206 -1379z" />
<glyph unicode="J" horiz-adv-x="912" d="M135 420v21q4 93 20 206l5 42l266 18q-5 -29 -9 -55q-12 -89 -12 -149q0 -93 28 -121q29 -31 67 -31q30 0 64 18q76 39 109 273l3 23q32 255 94 828l288 17q-33 -281 -63 -496q-75 -535 -138 -667q-88 -187 -236 -232q-89 -27 -169 -27q-54 0 -104 13q-125 30 -171 130 q-42 89 -42 189z" />
<glyph unicode="K" horiz-adv-x="904" d="M64 115q82 532 195 1338l253 20l-92 -625q212 322 392 589l278 -16q-178 -262 -477 -647q88 -255 274 -703l-319 -4q-59 233 -189 586l-75 -534z" />
<glyph unicode="L" horiz-adv-x="842" d="M83 68q20 132 38 263q84 601 142 1196l305 27q-91 -521 -144 -893q-20 -148 -35 -273l449 22l-39 -326z" />
<glyph unicode="M" horiz-adv-x="1307" d="M48 73q53 329 99 653q57 404 101 798l363 9l88 -1036l306 960l455 -5q-58 -325 -104 -656q-52 -369 -90 -747l-294 -20q56 398 128 973l-287 -879l-313 -21l-67 948l-139 -960z" />
<glyph unicode="N" horiz-adv-x="947" d="M63 79q60 342 106 666q52 374 85 725l296 14l165 -753q50 388 89 794l310 4q-132 -613 -220 -1238q-12 -84 -23 -168l-271 -3l-175 806q-50 -446 -92 -829z" />
<glyph unicode="O" horiz-adv-x="952" d="M123 575q0 114 20 255q98 694 579 694q339 0 339 -466q0 -114 -20 -254q-101 -721 -552 -721q-366 0 -366 492zM397 573q0 -223 135 -223q187 0 247 427q15 109 15 191q0 236 -129 236q-175 0 -248 -427q-5 -26 -8 -50q-12 -87 -12 -154z" />
<glyph unicode="P" horiz-adv-x="879" d="M67 80q43 263 82 538q59 422 108 874q175 24 306 24q206 0 301 -60q117 -73 117 -267q0 -53 -9 -114l-5 -33q-54 -316 -199.5 -404.5t-341.5 -94.5q-5 -31 -10 -64q-23 -166 -38 -393zM427 771q188 10 237 133q23 56 31 115q5 35 5 70q0 36 -5 72q-15 107 -135 107 q-32 0 -71 -8z" />
<glyph unicode="Q" horiz-adv-x="957" d="M127 573q0 115 20 256q98 694 579 694q339 0 339 -467q0 -113 -20 -254q-48 -341 -174 -521q47 -77 93 -147l-168 -164q-40 77 -87 163q-95 -52 -216 -52q-366 0 -366 492zM401 571q0 -223 135 -223q25 0 48 8q-50 88 -106 183l165 157q43 -83 84 -161q35 96 56 240 q15 110 15 191q0 237 -129 237q-175 0 -248 -428q-5 -26 -8 -50q-12 -87 -12 -154z" />
<glyph unicode="R" horiz-adv-x="895" d="M65 64q46 286 87 576q62 444 112 897q157 16 280 16q342 0 419 -125q55 -91 55 -197q0 -30 -4 -61q-9 -64 -35 -132q-89 -220 -283 -279q127 -18 177 -140q20 -49 20 -160q0 -156 -39 -434l-7 -43l-302 -4q23 126 37 226q22 157 22 251q0 87 -19 120q-46 76 -123 76 q-15 0 -31 -3q-37 -305 -55 -578zM442 876q187 9 254 126q36 62 44 121q2 18 2 35q0 33 -8 65q-24 85 -167 85q-33 0 -72 -4z" />
<glyph unicode="S" horiz-adv-x="909" d="M111 361q0 77 14 173q5 36 12 75l300 20q-14 -62 -22 -112q-7 -49 -7 -87q0 -140 89 -140h4q137 4 157 146l1 9q1 10 1 20q0 141 -218 276q-189 117 -189 360q0 49 7 102q1 10 4 20q54 337 426 343h8q284 0 284 -307q0 -55 -9 -120q-5 -34 -12 -72l-263 -15q10 45 15 83 q6 41 6 73q0 106 -67 106q-105 0 -131 -107q-3 -15 -5 -30q-3 -20 -3 -39q0 -67 33 -127q48 -89 186.5 -163t178.5 -203q20 -63 20 -131q0 -33 -5 -67q-6 -40 -18 -82q-44 -151 -163 -250.5t-297 -108.5q-12 -1 -24 -1q-161 0 -253 118q-60 76 -60 238z" />
<glyph unicode="T" horiz-adv-x="835" d="M221 1232l37 263q146 -4 290 -4q224 0 441 9l-31 -280h-252q-100 -711 -143 -1128l-284 -14q122 710 195 1158z" />
<glyph unicode="U" horiz-adv-x="912" d="M122 391q0 30 3 62q96 685 138 1080h266q-42 -226 -85 -531q-30 -214 -60 -468q-4 -30 -4 -55q0 -131 111 -131q0 -1 1 -1q131 0 165 238l124 922l296 9l-139 -989q-65 -457 -483 -457h-22q-311 36 -311 321z" />
<glyph unicode="V" horiz-adv-x="913" d="M186 1503l296 30l17 -1096q212 575 360 1041l273 -34q-338 -907 -501 -1339l-354 -11q-27 674 -91 1409z" />
<glyph unicode="W" horiz-adv-x="1337" d="M157 95q13 479 13 977q0 210 -2 424l303 19l-48 -989l277 869l361 4l-18 -866l222 947l294 -39q-200 -654 -390 -1322l-366 -19l15 959l-321 -978z" />
<glyph unicode="X" horiz-adv-x="913" d="M31 123q146 284 354 693l-173 654l293 43l107 -530l240 529l265 -13q-105 -216 -332 -683q50 -290 143 -729l-285 -28l-89 560l-245 -536z" />
<glyph unicode="Y" horiz-adv-x="835" d="M171 1479l286 29l113 -558q185 402 291 599h273q-330 -603 -475 -873l-83 -589l-261 -12l98 620q-160 482 -242 784z" />
<glyph unicode="Z" horiz-adv-x="826" d="M90 130l20 292q361 502 551 832l-424 -2l50 260q474 6 686 6l-37 -263q-336 -513 -552 -858q115 -3 219 -3q121 0 227 4l-30 -279q-263 11 -710 11z" />
<glyph unicode="[" horiz-adv-x="553" d="M25 -200l267 1900h450l-35 -250h-200l-197 -1400h200l-35 -250h-450z" />
<glyph unicode="\" horiz-adv-x="600" d="M215 1600l187 50l184 -1750l-177 -50z" />
<glyph unicode="]" horiz-adv-x="553" d="M25 -200l35 250h200l197 1400h-200l35 250h450l-267 -1900h-450z" />
<glyph unicode="^" horiz-adv-x="980" d="M195 1100l384 600h300l216 -600h-250l-144 400l-256 -400h-250z" />
<glyph unicode="_" horiz-adv-x="694" d="M-57 -350l28 200h700l-28 -200h-700z" />
<glyph unicode="`" horiz-adv-x="395" d="M220 1436l182 130q58 -126 155 -265l-137 -120q-109 151 -200 255z" />
<glyph unicode="a" horiz-adv-x="796" d="M83 296q0 32 5 68q4 28 12 60q53 237 370 237q61 0 133 -9l16 116q4 26 4 47q0 94 -73 94h-4q-7 1 -13 1q-97 0 -119 -158l-2 -15l-235 20q49 349 385 349h21q287 -16 287 -261q0 -33 -5 -70l-100 -710l-233 -4l5 95q-83 -82 -202 -82q-51 0 -108 16q-144 37 -144 206z M340 359q0 -33 23 -59q22 -24 62 -24q51 0 131 40l24 176q-41 9 -76 9q-91 0 -133 -61q-25 -37 -30 -69q-1 -6 -1 -12z" />
<glyph unicode="b" horiz-adv-x="835" d="M54 52q56 366 104 704q52 371 94 709h266q-54 -301 -85 -523q66 95 151 111q14 1 27 1q276 0 276 -338q0 -61 -9 -133l-3 -18q-66 -472 -413 -472q-83 0 -142 111l-29 -153zM353 409q37 -106 117 -106q9 0 18 1q94 13 137 247q5 24 8 46q7 52 7 92q0 110 -53 137 q-23 11 -46 11q-63 0 -134 -82z" />
<glyph unicode="c" horiz-adv-x="730" d="M97 406q0 70 12 155l4 30q82 516 411 521h8q260 0 260 -256q0 -42 -7 -90q-2 -20 -6 -40l-217 -16l3 24q5 36 5 64q0 118 -83 118q-105 0 -146 -295l-5 -33q-10 -88 -10 -152q0 -167 72 -167h6q88 7 105 133q4 27 5 60l236 -15q-51 -361 -385 -366q-4 -1 -7 -1 q-261 0 -261 326z" />
<glyph unicode="d" horiz-adv-x="835" d="M113 411q0 69 12 152q1 10 4 20q72 471 370 471q12 0 25 -1q101 -6 149 -111q32 222 63 523h266q-54 -338 -106 -709q-47 -338 -94 -704l-237 -1l14 153q-90 -111 -213 -111q-253 0 -253 318zM366 462q0 -148 73 -158q9 -1 18 -1q80 0 146 106l44 346q-47 79 -108 79 q-25 0 -52 -13q-84 -41 -111 -230q-3 -22 -5 -45q-5 -46 -5 -84z" />
<glyph unicode="e" d="M93 376q0 70 12 155l4 30q82 516 407 516q293 0 293 -329q0 -60 -10 -132q-8 -56 -22 -120h-447q-10 -69 -10 -119q0 -138 73 -138h7q88 7 105 133q4 27 5 60l238 5q-53 -381 -387 -386q-4 -1 -7 -1q-261 0 -261 326zM332 680h226l3 24q5 36 5 64q0 118 -83 118 q-111 0 -151 -206z" />
<glyph unicode="f" horiz-adv-x="699" d="M147 819l26 215l159 7q2 27 6 55q13 94 46 193q41 129 169 206q95 58 228 58q44 0 93 -7l-33 -219q-29 4 -55 4q-83 0 -128 -41q-49 -43 -66 -168q-5 -30 -7 -66l215 3l-29 -203l-222 -14q-38 -328 -79 -620q-12 -88 -25 -172l-256 -11q50 333 121 788z" />
<glyph unicode="g" horiz-adv-x="827" d="M45 -182q0 32 5 69q4 22 9 47l237 13q-3 -12 -4 -24q-3 -17 -3 -32q0 -79 73 -87q14 -2 26 -2q75 0 115 60q36 54 56 202q6 40 11 88q-72 -112 -225 -122q-240 2 -240 330q0 78 14 175l1 7q73 508 424 511q96 0 157 -112l25 159l218 -10q-116 -825 -149 -1022t-104 -316 t-207 -152q-71 -18 -139 -18q-61 0 -119 14q-124 30 -161 113q-20 45 -20 109zM348 410q0 -108 47 -140q23 -16 51 -16q62 0 147 76l57 406q-35 99 -110 99q-15 0 -32 -4q-100 -23 -144 -267q-5 -26 -8 -50q-8 -59 -8 -104z" />
<glyph unicode="h" horiz-adv-x="791" d="M79 30q65 460 162 1443l245 10l-69 -563q60 130 215 132h3q152 0 196 -138q12 -36 12 -111q0 -117 -30 -329q-23 -170 -67 -402h-252q56 309 80 479q12 85 16 136q1 19 1 36q0 114 -66 114q-76 0 -109 -80l-92 -725z" />
<glyph unicode="i" horiz-adv-x="335" d="M58 45q75 585 135 1011l254 15q-69 -408 -126 -811q-15 -108 -29 -215h-234zM209 1286q0 10 1 21q9 60 58 103t109 43q61 0 98 -43q30 -35 30 -80q0 -11 -2 -23q-8 -61 -57 -104t-110 -43q-60 0 -97 43q-30 35 -30 83z" />
<glyph unicode="j" horiz-adv-x="335" d="M-212 -377l8 254q41 -7 75 -7q95 0 138 55q58 73 90 305l2 10q32 239 93 797l248 18q-39 -305 -70 -529q-40 -281 -68 -437q-49 -280 -171 -380q-107 -88 -289 -88q-27 0 -56 2zM209 1284q0 11 2 23q8 60 57 103t109 43q61 0 98 -43q30 -35 30 -82q0 -10 -1 -21 q-9 -61 -58 -104t-110 -43q-60 0 -97 43q-30 35 -30 81z" />
<glyph unicode="k" horiz-adv-x="808" d="M64 115q82 532 195 1338l233 20l-113 -775q167 212 316 409l227 -26q-217 -252 -383 -477q85 -205 238 -533l-252 -24q-77 243 -187 456l-54 -384z" />
<glyph unicode="l" horiz-adv-x="367" d="M78 44q51 331 94 637q60 430 106 811l245 4q-38 -245 -75 -503q-62 -445 -118 -926z" />
<glyph unicode="m" horiz-adv-x="1140" d="M37 44l23 164q61 436 109 871l186 19l-18 -160q70 115 145 143q44 16 87 16q32 0 63 -8q75 -20 88 -160q42 109 111 145.5t147 37.5h4q76 0 141 -37q66 -38 89 -142q11 -52 11 -123q0 -72 -12 -164l-82 -581l-217 -5q59 329 92 560q9 63 9 110q0 126 -62 139q-13 2 -25 2 q-70 0 -120 -90q-21 -104 -41 -243q-26 -189 -51 -441l-250 -2q69 387 93 564l2 12q6 46 6 81q0 96 -49 103h-13q-61 0 -128 -70l-101 -732z" />
<glyph unicode="n" horiz-adv-x="786" d="M78 50q65 460 114 1033l187 20l-13 -163q60 130 240 132h4q176 0 220 -138q12 -36 12 -111q0 -117 -30 -329q-23 -170 -67 -402h-242q56 309 80 479q12 85 16 136q1 17 1 32q0 118 -76 118q-86 0 -119 -80l-92 -725z" />
<glyph unicode="o" d="M93 382q0 69 12 151l4 28q82 516 434 516q285 0 285 -331q0 -64 -11 -141l-6 -38q-86 -511 -435 -516q-4 -1 -8 -1q-275 0 -275 332zM321 390q0 -132 83 -137h7q81 0 126 107q37 89 54 211q4 30 8 61q4 47 4 84q0 89 -24 117q-22 24 -57 24q-20 0 -44 -8 q-66 -22 -109 -163q-25 -84 -37 -169q-8 -57 -11 -115v-12z" />
<glyph unicode="p" horiz-adv-x="835" d="M-3 -349q53 337 107 717q48 346 97 726l237 1l-14 -154q90 112 213 112q251 0 251 -325q0 -72 -12 -160l-3 -20q-75 -486 -374 -486q-12 0 -24 1q-101 5 -149 111q-32 -222 -63 -523h-266zM352 360q47 -79 106 -79q24 0 50 14q78 40 106 239q3 24 6 50q5 54 5 96 q0 151 -66 161q-9 1 -17 1q-76 0 -143 -106z" />
<glyph unicode="q" horiz-adv-x="835" d="M105 363q0 81 14 180q-1 2 -1 4q71 506 423 506q103 0 162 -112l29 154l217 -1q-60 -395 -110 -748q-55 -388 -96 -725l-254 -20q46 321 78 543q-73 -106 -226 -111q-236 0 -236 330zM348 410q0 -108 47 -140q23 -16 51 -16q62 0 147 76l57 406q-35 99 -110 99 q-15 0 -32 -4q-100 -23 -144 -267q-5 -26 -8 -50q-8 -59 -8 -104z" />
<glyph unicode="r" horiz-adv-x="759" d="M77 40q65 460 114 1033l187 20l-13 -163q59 120 215 137q24 2 45 2q121 0 173 -79q40 -64 40 -179q0 -54 -9 -120l-225 -22q4 17 6 33q5 35 5 62q0 98 -65 98h-4q-97 -5 -132 -95l-92 -725z" />
<glyph unicode="s" horiz-adv-x="710" d="M79 314q0 42 6 91l231 11l-2 -13q-4 -29 -4 -53q0 -101 77 -103h4q92 0 105 89l1 7v10q0 91 -160 148q-169 60 -185 202q-3 23 -3 45q0 26 4 51q12 84 65 156q81 110 217 126q37 4 71 4q89 0 153 -31q86 -43 111 -123q11 -35 11 -74q0 -23 -4 -48q-4 -32 -14 -66l-215 -5 q7 25 10 46q3 18 3 33q0 68 -52 74q-7 1 -14 1q-66 0 -99 -67q-11 -23 -14 -42q-1 -6 -1 -12q0 -40 34 -69q55 -48 169.5 -97.5t140.5 -168.5q5 -26 5 -52q0 -19 -3 -38q-11 -76 -65 -153q-88 -123 -238 -143q-32 -5 -63 -5q-110 0 -196 57t-86 212z" />
<glyph unicode="t" horiz-adv-x="671" d="M165 859l27 223l168 -2l43 316l230 15l-47 -331l192 5l-24 -189l-195 -9l-64 -455q-3 -22 -3 -41q0 -118 116 -118q28 0 62 7l-40 -220q-49 -6 -92 -6q-280 0 -280 257q0 32 4 69l68 489z" />
<glyph unicode="u" horiz-adv-x="786" d="M105 347q0 124 32 349q25 176 69 415h243q-67 -336 -92 -517q-13 -91 -15 -142q-1 -12 -1 -23q0 -133 80 -133q86 0 119 81l88 694l235 2q-60 -430 -110 -1002l-187 -21l13 163q-60 -130 -244 -131q-2 -1 -3 -1q-182 0 -218 164q-9 37 -9 102z" />
<glyph unicode="v" horiz-adv-x="755" d="M150 1070l245 13l21 -727q153 408 257 744l235 -30q-172 -419 -402 -990l-270 -4q-44 579 -86 994z" />
<glyph unicode="w" horiz-adv-x="1168" d="M129 1071l248 36l-9 -757l224 700l280 10l52 -648l190 695l218 -20q-159 -479 -308 -1009l-297 -13l-11 686l-263 -676l-272 -13q-28 490 -52 1009z" />
<glyph unicode="x" horiz-adv-x="812" d="M37 105q141 243 269 478l-129 473l268 40l50 -393l160 396l259 -31q-119 -195 -262 -475q58 -242 133 -495l-262 -28l-72 385l-173 -382z" />
<glyph unicode="y" horiz-adv-x="803" d="M111 340q0 36 5 77q17 172 74 664l265 21q-52 -300 -79 -494q-10 -73 -16 -131q-6 -48 -6 -85q0 -130 71 -135q6 -1 11 -1q82 0 117 94q20 55 49 261q23 165 51 426l249 18q-39 -305 -70 -524q-38 -273 -64 -412q-45 -250 -196 -380q-137 -118 -354 -118q-25 0 -50 2 l6 244q19 -1 37 -1q168 0 238 59q73 61 92 196l2 16q-70 -90 -188 -90h-14q-128 6 -185 102q-45 73 -45 191z" />
<glyph unicode="z" horiz-adv-x="685" d="M45 52l19 194l463 635q-179 0 -355 -13l25 214q87 -2 196 -2q175 0 406 5l-23 -204l-441 -600h356l-34 -219q-251 0 -612 -10z" />
<glyph unicode="{" horiz-adv-x="830" d="M127 620l35 250q250 0 271 150l40 280q56 400 456 400h100l-35 -250h-100q-150 0 -171 -150l-43 -300q-28 -200 -235 -250q169 -44 169 -202q0 -23 -4 -48l-42 -300q-3 -18 -3 -35q0 -115 132 -115h100l-35 -250h-100q-351 0 -351 308q0 43 7 92l38 270q2 12 2 22 q0 128 -231 128z" />
<glyph unicode="|" horiz-adv-x="330" d="M12 -200l267 1900h250l-267 -1900h-250z" />
<glyph unicode="}" horiz-adv-x="830" d="M12 -200l35 250h100q150 0 171 150l42 300q28 200 236 250q-169 44 -169 202q0 23 4 48l42 300q3 18 3 35q0 115 -132 115h-100l35 250h100q351 0 351 -308q0 -43 -7 -92l-40 -280q-2 -12 -2 -22q0 -128 231 -128l-35 -250q-250 0 -271 -150l-38 -270q-56 -400 -456 -400 h-100z" />
<glyph unicode="~" horiz-adv-x="883" d="M136 614q51 366 295 366q122 0 177 -91q45 -77 92 -77q10 0 19 4q58 18 78 164h183q-51 -366 -295 -366q-122 0 -182 92q-50 76 -94 76q-9 0 -18 -3q-51 -19 -72 -165h-183z" />
<glyph unicode="&#xa1;" horiz-adv-x="335" d="M8 -309q86 509 160 1006l223 5q-50 -426 -119 -1011h-264zM160 932q0 10 1 21q9 60 58 103t110 43q60 0 97 -43q30 -35 30 -80q0 -11 -2 -23q-8 -61 -57 -104t-109 -43q-61 0 -98 43q-30 35 -30 83z" />
<glyph unicode="&#xa2;" horiz-adv-x="730" d="M154 818q0 69 12 153l5 30q70 444 324 509l27 190h150l-26 -182q204 -26 204 -253q0 -42 -7 -90q-3 -19 -6 -39l-218 -16l4 24q5 36 5 64q0 118 -83 118q-105 0 -146 -295l-5 -33q-11 -90 -11 -154q0 -165 72 -165h6q88 7 106 133q4 27 5 60l235 -15q-44 -315 -304 -359 l-28 -198h-150l28 195q-199 37 -199 323z" />
<glyph unicode="&#xa3;" horiz-adv-x="919" d="M62 87l29 253l143 -1q34 94 46 179q6 46 6 90v12h-159l31 220h102q-1 27 -1 54q0 76 10 156l2 9q24 175 118 295q96 122 231 146q54 9 102 9q69 0 122 -19q91 -34 137 -146q23 -59 23 -138q0 -43 -7 -93q-4 -32 -12 -67l-239 -6l4 28q7 49 7 86q0 121 -72 121h-11 q-112 -14 -138 -199l-1 -10q-15 -118 -20 -226h293l-31 -220h-267l-2 -11q-17 -124 -82 -267q38 -4 79 -4q164 0 356 65l40 -248q-198 -64 -358 -71q-66 -3 -160 -3q-133 0 -321 6z" />
<glyph unicode="&#xa5;" horiz-adv-x="1033" d="M101 310l24 170h331l20 130h-333l24 170h295q-139 424 -214 699l286 29l113 -558q185 402 291 599h273q-273 -499 -419 -769h275l-24 -170h-316l-18 -130h316l-24 -170h-316l-31 -223l-262 -12l37 235h-328z" />
<glyph unicode="&#xa8;" horiz-adv-x="777" d="M234 1370q0 10 1 21q9 61 58 104t109 43q61 0 98 -43q30 -35 30 -81q0 -11 -2 -23q-8 -60 -57 -103t-110 -43q-60 0 -97 43q-30 35 -30 82zM644 1370q0 10 1 21q9 61 58 104t109 43q61 0 98 -43q30 -35 30 -81q0 -11 -2 -23q-8 -60 -57 -103t-110 -43q-60 0 -97 43 q-30 35 -30 82z" />
<glyph unicode="&#xa9;" horiz-adv-x="1108" d="M158 568q0 51 7 102q9 62 28 124q57 184 195 326q126 129 345 129q20 0 41 -1q249 -13 324 -137q62 -104 62 -282q0 -35 -3 -74q-4 -51 -11 -99q-23 -166 -87 -286q-84 -155 -288 -212q-91 -26 -178 -26q-106 0 -206 39q-180 70 -215 254q-14 71 -14 143zM302 593 q0 -46 8 -92q22 -135 153 -190q77 -33 159 -33q58 0 118 16q146 39 212 158q51 94 69 222q5 34 7 71q2 25 2 49q0 138 -55 218q-65 93 -237 99h-19q-158 0 -246 -96q-95 -103 -140 -241q-19 -54 -26 -107q-5 -37 -5 -74zM463 611q0 43 6 86q4 26 10 54q23 106 92 181t156 76 h1q86 0 122 -53q25 -37 25 -115q0 -32 -4 -71l-115 1q1 19 1 34q0 59 -20 76q-11 8 -23 8q-19 0 -43 -21q-39 -35 -62 -193q-2 -4 -2 -8q-5 -39 -5 -68q0 -84 45 -86q1 -1 3 -1q59 0 82 129l126 -3q-44 -208 -154 -242q-44 -13 -80 -13q-56 0 -92 32q-60 52 -67 146 q-2 26 -2 51z" />
<glyph unicode="&#xab;" horiz-adv-x="936" d="M148 700l286 400h220l-256 -400l144 -400h-220zM544 700l286 400h220l-256 -400l144 -400h-220z" />
<glyph unicode="&#xac;" horiz-adv-x="920" d="M129 630l35 250h840l-77 -550h-250l42 300h-590z" />
<glyph unicode="&#xad;" horiz-adv-x="580" d="M127 620l35 250h500l-35 -250h-500z" />
<glyph unicode="&#xae;" horiz-adv-x="1108" d="M158 568q0 51 7 102q9 62 28 124q57 184 195 326q126 129 345 129q20 0 41 -1q249 -13 324 -137q62 -104 62 -282q0 -35 -3 -74q-4 -51 -11 -99q-23 -166 -87 -286q-84 -155 -288 -212q-91 -26 -178 -26q-106 0 -206 39q-180 70 -215 254q-14 71 -14 143zM300 587 q0 -45 8 -91q22 -134 152 -189q76 -33 158 -33q57 0 116 16q144 39 209 157q50 93 68 221q5 33 8 69q2 25 2 49q0 136 -55 215q-64 92 -234 98h-19q-156 0 -245 -95q-93 -102 -138 -238q-18 -53 -25 -105q-5 -37 -5 -74zM433 412l20 145q31 218 61 443q65 5 118 5 q81 0 131 -11q81 -19 100 -87q7 -28 7 -55q0 -15 -2 -29q-4 -27 -14 -52q-27 -68 -100 -96q73 -16 81 -67q2 -15 2 -37q0 -55 -14 -156l-136 -4q3 18 6 34q5 37 5 64q0 43 -13 61q-22 29 -77 29q-9 0 -20 -1l-25 -184zM608 701h7q40 0 75 22q38 24 45 75q2 12 2 22 q0 33 -18 48q-16 12 -53 12q-16 0 -35 -2z" />
<glyph unicode="&#xb0;" horiz-adv-x="690" d="M205 1086q0 21 3 44q18 124 118.5 212t224.5 88t200 -88q60 -71 60 -166q0 -22 -3 -46q-17 -124 -117.5 -212t-224.5 -88t-199 88q-62 72 -62 168zM372 1111q0 -44 28 -76q33 -40 89 -40t101.5 39.5t52.5 95.5q2 11 2 21q0 43 -28 75q-34 39 -90 39t-101 -39.5t-53 -95.5 q-1 -10 -1 -19z" />
<glyph unicode="&#xb1;" horiz-adv-x="920" d="M47 50l35 250h840l-35 -250h-840zM150 780l35 250h290l40 290h250l-40 -290h300l-35 -250h-300l-43 -300h-250l43 300h-290z" />
<glyph unicode="&#xb4;" horiz-adv-x="395" d="M201 1301q137 139 229 265l146 -130q-121 -104 -272 -255z" />
<glyph unicode="&#xb5;" horiz-adv-x="786" d="M-8 -340q85 509 153 995q32 231 61 456h233q-40 -252 -64 -416q-22 -163 -28 -238q-1 -17 -1 -32q0 -119 76 -119q86 0 119 81l86 684l236 2q-61 -430 -110 -1002l-187 -21l9 133q-67 -100 -145 -110q-10 -2 -20 -2q-64 0 -103 59l-64 -460z" />
<glyph unicode="&#xb6;" horiz-adv-x="1130" d="M185 991q0 42 7 89q55 390 445 390h660l-204 -1450h-250l168 1200h-150l-168 -1200h-250l94 670q-352 0 -352 301z" />
<glyph unicode="&#xb7;" horiz-adv-x="381" d="M144 735q0 9 1 18q7 52 49 88.5t93 36.5q52 0 83 -36q25 -30 25 -70q0 -9 -1 -19q-7 -51 -48.5 -87.5t-93.5 -36.5q-51 0 -82 37q-26 29 -26 69z" />
<glyph unicode="&#xb8;" horiz-adv-x="429" d="M5 -403l7 119q55 -6 94 -6q63 0 85 15q23 16 26 37q1 4 1 8q0 6 -2 12q-8 27 -38 27q-7 0 -14 -1q-42 -7 -59 -45l-87 9q32 156 50 232h122l-21 -89q29 21 62 21q18 0 37 -6q53 -17 73 -79q7 -26 7 -53q0 -14 -2 -29q-3 -25 -13 -51q-26 -70 -101 -106q-48 -23 -126 -23 q-45 0 -101 8z" />
<glyph unicode="&#xbb;" horiz-adv-x="936" d="M92 300l256 400l-144 400h220l174 -400l-286 -400h-220zM488 300l256 400l-144 400h220l174 -400l-286 -400h-220z" />
<glyph unicode="&#xbf;" horiz-adv-x="855" d="M53 -50q0 43 7 92q2 16 6 33q29 167 106 276.5t209 158.5l29 183l213 4l-44 -333q-165 -24 -217 -142q-37 -82 -48 -160q-4 -27 -4 -54v-11q0 -105 114 -105q2 0 5 1q101 2 126 181q5 34 7 73l249 -5q-3 -60 -10 -111q-25 -179 -100 -257q-99 -102 -229 -121 q-49 -8 -93 -8q-79 0 -148 23q-110 34 -152 137q-26 61 -26 145zM396 932q0 10 1 21q9 60 58 103t110 43q60 0 97 -43q30 -35 30 -80q0 -11 -2 -23q-8 -61 -57 -104t-109 -43q-61 0 -98 43q-30 35 -30 83z" />
<glyph unicode="&#xc0;" horiz-adv-x="960" d="M-5 90q308 854 508 1448l375 6q51 -618 118 -1408l-263 -52l-28 379h-311l-141 -409zM412 737l325 7q-22 216 -97 517q-127 -253 -228 -524zM504 1865l183 130q57 -126 154 -265l-136 -120q-109 151 -201 255z" />
<glyph unicode="&#xc1;" horiz-adv-x="960" d="M-5 90q308 854 508 1448l375 6q51 -618 118 -1408l-263 -52l-28 379h-311l-141 -409zM412 737l325 7q-22 216 -97 517q-127 -253 -228 -524zM604 1730q137 139 230 265l145 -130q-120 -104 -271 -255z" />
<glyph unicode="&#xc2;" horiz-adv-x="960" d="M-5 90q308 854 508 1448l375 6q51 -618 118 -1408l-263 -52l-28 379h-311l-141 -409zM412 737l325 7q-22 216 -97 517q-127 -253 -228 -524zM414 1659l222 300h240l138 -300h-200l-79 150l-121 -150h-200z" />
<glyph unicode="&#xc3;" horiz-adv-x="960" d="M-5 90q308 854 508 1448l375 6q51 -618 118 -1408l-263 -52l-28 379h-311l-141 -409zM390 1669q42 300 242 300q100 0 145 -75q37 -62 76 -62q8 0 15 2q47 15 64 135h150q-42 -300 -242 -300q-100 0 -150 75q-41 63 -77 63q-7 0 -14 -3q-42 -15 -59 -135h-150zM412 737 l325 7q-22 216 -97 517q-127 -253 -228 -524z" />
<glyph unicode="&#xc4;" horiz-adv-x="960" d="M-5 90q308 854 508 1448l375 6q51 -618 118 -1408l-263 -52l-28 379h-311l-141 -409zM380 1779q0 10 1 21q9 61 58 104t109 43q61 0 98 -43q30 -35 30 -81q0 -11 -2 -23q-8 -60 -57 -103t-110 -43q-60 0 -97 43q-30 35 -30 82zM412 737l325 7q-22 216 -97 517 q-127 -253 -228 -524zM790 1779q0 10 1 21q9 61 58 104t109 43q61 0 98 -43q30 -35 30 -81q0 -11 -2 -23q-8 -60 -57 -103t-110 -43q-60 0 -97 43q-30 35 -30 82z" />
<glyph unicode="&#xc5;" horiz-adv-x="960" d="M-5 90q308 854 508 1448l375 6q51 -618 118 -1408l-263 -52l-28 379h-311l-141 -409zM412 737l325 7q-22 216 -97 517q-127 -253 -228 -524zM533 1778q0 15 2 31q11 83 78 141.5t150 58.5t133 -58q41 -48 41 -113q0 -14 -2 -29q-12 -83 -79 -141.5t-150 -58.5t-133 59 q-40 47 -40 110zM652 1796q0 -26 17 -45q20 -24 54 -24t62 24t33 58q1 5 1 11q0 27 -18 48q-21 24 -55 24t-61.5 -24.5t-31.5 -58.5q-1 -7 -1 -13z" />
<glyph unicode="&#xc6;" horiz-adv-x="1376" d="M35 90q308 854 498 1378l938 22l-40 -282l-393 16l-46 -328l357 10l-29 -271h-317l-36 -254h415l-40 -284l-691 10q32 177 59 356h-276l-141 -409zM482 737l269 6l58 489l-124 -1q-102 -223 -203 -494z" />
<glyph unicode="&#xc7;" horiz-adv-x="885" d="M138 516q0 124 22 282q102 724 498 724q315 0 315 -346q0 -63 -10 -138q-4 -29 -10 -60l-222 -1l4 27q7 47 7 85q0 150 -106 150q-141 0 -202 -434q-22 -155 -22 -261q0 -228 101 -228h1q148 1 182 240l14 99h248l-11 -75q-66 -473 -441 -518l-22 -87q29 21 62 21 q18 0 37 -6q54 -17 73 -79q8 -27 8 -54q0 -14 -2 -28q-4 -25 -13 -51q-26 -70 -101 -106q-48 -23 -126 -23q-45 0 -101 8l6 119q56 -6 95 -6q63 0 85 15q23 16 26 37v7q0 6 -1 13q-9 27 -39 27q-7 0 -14 -1q-42 -7 -58 -45l-88 9q32 155 51 230q-246 41 -246 454z" />
<glyph unicode="&#xc8;" horiz-adv-x="798" d="M73 107q50 281 91 566q55 395 91 797q227 9 637 20l-39 -282l-393 16l-46 -328l356 10l-29 -271h-317l-35 -254h415l-40 -284zM417 1815l182 130q58 -126 155 -265l-137 -120q-109 151 -200 255z" />
<glyph unicode="&#xc9;" horiz-adv-x="798" d="M73 107q50 281 91 566q55 395 91 797q227 9 637 20l-39 -282l-393 16l-46 -328l356 10l-29 -271h-317l-35 -254h415l-40 -284zM516 1680q137 139 229 265l146 -130q-121 -104 -272 -255z" />
<glyph unicode="&#xca;" horiz-adv-x="798" d="M73 107q50 281 91 566q55 395 91 797q227 9 637 20l-39 -282l-393 16l-46 -328l356 10l-29 -271h-317l-35 -254h415l-40 -284zM328 1629l222 300h240l138 -300h-200l-79 150l-121 -150h-200z" />
<glyph unicode="&#xcb;" horiz-adv-x="798" d="M74 107q50 281 91 566q55 395 91 797q227 9 637 20l-39 -282l-393 16l-46 -328l356 10l-29 -271h-317l-35 -254h415l-40 -284zM292 1727q0 11 2 23q8 61 57.5 104t109.5 43q61 0 98 -43q29 -35 29 -83q0 -10 -1 -21q-9 -60 -58 -103t-110 -43q-60 0 -97 43q-30 35 -30 80 zM702 1727q0 11 2 23q8 61 57.5 104t109.5 43q61 0 98 -43q29 -35 29 -83q0 -10 -1 -21q-9 -60 -58 -103t-110 -43q-60 0 -97 43q-30 35 -30 80z" />
<glyph unicode="&#xcc;" horiz-adv-x="381" d="M87 104q103 734 170 1378l288 24q-106 -679 -206 -1379zM214 1845l182 130q57 -126 155 -265l-137 -120q-109 151 -200 255z" />
<glyph unicode="&#xcd;" horiz-adv-x="381" d="M87 104q103 734 170 1378l288 24q-106 -679 -206 -1379zM313 1710q136 139 229 265l146 -130q-121 -104 -272 -255z" />
<glyph unicode="&#xce;" horiz-adv-x="381" d="M88 104q103 734 170 1378l288 24q-106 -679 -206 -1379zM126 1659l222 300h240l138 -300h-200l-79 150l-121 -150h-200z" />
<glyph unicode="&#xcf;" horiz-adv-x="381" d="M87 104q103 734 170 1378l288 24q-106 -679 -206 -1379zM92 1779q0 10 1 21q9 61 58 104t109 43q61 0 98 -43q30 -35 30 -81q0 -11 -2 -23q-8 -60 -57 -103t-110 -43q-60 0 -97 43q-30 35 -30 82zM502 1779q0 10 1 21q9 61 58 104t109 43q61 0 98 -43q30 -35 30 -81 q0 -11 -2 -23q-8 -60 -57 -103t-110 -43q-60 0 -97 43q-30 35 -30 82z" />
<glyph unicode="&#xd0;" horiz-adv-x="875" d="M10 710l24 170h140q42 310 87 637q117 14 214 14q270 0 383 -108q116 -113 116 -371q0 -81 -11 -176l-10 -72q-48 -342 -134 -488q-96 -161 -297 -214q-117 -31 -251 -31q-100 0 -210 17q44 302 89 622h-140zM333 367q34 -8 66 -8q88 0 156 61q94 82 134 368l1 4 q14 107 14 187q0 134 -41 191q-52 68 -136 68q-27 0 -58 -7l-63 -351h128l-24 -170h-131q-9 -58 -17 -116q-16 -115 -29 -227z" />
<glyph unicode="&#xd1;" horiz-adv-x="947" d="M63 79q60 342 106 666q52 374 85 725l296 14l165 -753q50 388 89 794l310 4q-132 -613 -220 -1238q-12 -84 -23 -168l-271 -3l-175 806q-50 -446 -92 -829zM383 1669q43 300 243 300q100 0 144 -75q37 -62 76 -62q8 0 16 2q47 15 64 135h150q-43 -300 -243 -300 q-100 0 -149 75q-41 63 -77 63q-7 0 -15 -3q-42 -15 -59 -135h-150z" />
<glyph unicode="&#xd2;" horiz-adv-x="952" d="M123 575q0 114 20 255q98 694 579 694q339 0 339 -466q0 -114 -20 -254q-101 -721 -552 -721q-366 0 -366 492zM397 573q0 -223 135 -223q187 0 247 427q15 109 15 191q0 236 -129 236q-175 0 -248 -427q-5 -26 -8 -50q-12 -87 -12 -154zM501 1855l182 130 q58 -126 155 -265l-137 -120q-109 151 -200 255z" />
<glyph unicode="&#xd3;" horiz-adv-x="952" d="M123 575q0 114 20 255q98 694 579 694q339 0 339 -466q0 -114 -20 -254q-101 -721 -552 -721q-366 0 -366 492zM397 573q0 -223 135 -223q187 0 247 427q15 109 15 191q0 236 -129 236q-175 0 -248 -427q-5 -26 -8 -50q-12 -87 -12 -154zM600 1720q137 139 229 265 l146 -130q-121 -104 -272 -255z" />
<glyph unicode="&#xd4;" horiz-adv-x="952" d="M123 575q0 114 20 255q98 694 579 694q339 0 339 -466q0 -114 -20 -254q-101 -721 -552 -721q-366 0 -366 492zM397 573q0 -223 135 -223q187 0 247 427q15 109 15 191q0 236 -129 236q-175 0 -248 -427q-5 -26 -8 -50q-12 -87 -12 -154zM403 1609l223 300h240l137 -300 h-200l-78 150l-122 -150h-200z" />
<glyph unicode="&#xd5;" horiz-adv-x="952" d="M123 575q0 114 20 255q98 694 579 694q339 0 339 -466q0 -114 -20 -254q-101 -721 -552 -721q-366 0 -366 492zM380 1619q42 300 242 300q100 0 144 -75q38 -62 77 -62q8 0 15 2q47 15 64 135h150q-42 -300 -242 -300q-100 0 -150 75q-41 63 -77 63q-7 0 -14 -3 q-42 -15 -59 -135h-150zM397 573q0 -223 135 -223q187 0 247 427q15 109 15 191q0 236 -129 236q-175 0 -248 -427q-5 -26 -8 -50q-12 -87 -12 -154z" />
<glyph unicode="&#xd6;" horiz-adv-x="952" d="M123 575q0 114 20 255q98 694 579 694q339 0 339 -466q0 -114 -20 -254q-101 -721 -552 -721q-366 0 -366 492zM372 1737q0 11 2 23q8 61 57 104t109 43q61 0 98 -43q30 -35 30 -83q0 -10 -1 -21q-9 -60 -58 -103t-110 -43q-60 0 -97 43q-30 35 -30 80zM397 573 q0 -223 135 -223q187 0 247 427q15 109 15 191q0 236 -129 236q-175 0 -248 -427q-5 -26 -8 -50q-12 -87 -12 -154zM782 1737q0 11 2 23q8 61 57 104t109 43q61 0 98 -43q30 -35 30 -83q0 -10 -1 -21q-9 -60 -58 -103t-110 -43q-60 0 -97 43q-30 35 -30 80z" />
<glyph unicode="&#xd7;" horiz-adv-x="993" d="M107 474l315 276l-237 276l201 177l238 -276l321 283l153 -177l-323 -283l243 -283l-202 -177l-242 283l-315 -276z" />
<glyph unicode="&#xd8;" horiz-adv-x="952" d="M122 575q0 114 20 255q98 694 579 694q64 0 116 -17l72 173l114 -36l-82 -198q120 -113 120 -391q0 -112 -20 -251q-102 -721 -553 -721q-59 0 -108 12l-68 -165l-107 36l73 177q-156 111 -156 432zM395 570q0 -65 12 -111l303 736q-21 9 -47 9q-174 0 -247 -427 q-5 -26 -8 -51q-13 -88 -13 -156zM489 356q19 -6 42 -6q187 0 247 427q15 109 15 190q0 59 -8 104z" />
<glyph unicode="&#xd9;" horiz-adv-x="912" d="M122 391q0 30 3 62q96 685 138 1080h266q-42 -226 -85 -531q-30 -214 -60 -468q-4 -30 -4 -55q0 -131 111 -131q0 -1 1 -1q131 0 165 238l124 922l296 9l-139 -989q-65 -457 -483 -457h-22q-311 36 -311 321zM478 1845l182 130q57 -126 155 -265l-137 -120 q-109 151 -200 255z" />
<glyph unicode="&#xda;" horiz-adv-x="912" d="M122 391q0 30 3 62q96 685 138 1080h266q-42 -226 -85 -531q-30 -214 -60 -468q-4 -30 -4 -55q0 -131 111 -131q0 -1 1 -1q131 0 165 238l124 922l296 9l-139 -989q-65 -457 -483 -457h-22q-311 36 -311 321zM577 1710q136 139 229 265l146 -130q-121 -104 -272 -255z " />
<glyph unicode="&#xdb;" horiz-adv-x="912" d="M122 391q0 30 3 62q96 685 138 1080h266q-42 -226 -85 -531q-30 -214 -60 -468q-4 -30 -4 -55q0 -131 111 -131q0 -1 1 -1q131 0 165 238l124 922l296 9l-139 -989q-65 -457 -483 -457h-22q-311 36 -311 321zM389 1659l222 300h240l138 -300h-200l-79 150l-121 -150h-200 z" />
<glyph unicode="&#xdc;" horiz-adv-x="912" d="M122 391q0 30 3 62q96 685 138 1080h266q-42 -226 -85 -531q-30 -214 -60 -468q-4 -30 -4 -55q0 -131 111 -131q0 -1 1 -1q131 0 165 238l124 922l296 9l-139 -989q-65 -457 -483 -457h-22q-311 36 -311 321zM353 1757q0 11 2 23q8 61 57 104t109 43q61 0 98 -43 q30 -35 30 -83q0 -10 -1 -21q-9 -60 -58 -103t-110 -43q-60 0 -97 43q-30 35 -30 80zM763 1757q0 11 2 23q8 61 57 104t109 43q61 0 98 -43q30 -35 30 -83q0 -10 -1 -21q-9 -60 -58 -103t-110 -43q-60 0 -97 43q-30 35 -30 80z" />
<glyph unicode="&#xdd;" horiz-adv-x="835" d="M171 1479l286 29l113 -558q185 402 291 599h273q-330 -603 -475 -873l-83 -589l-261 -12l98 620q-160 482 -242 784zM561 1710q137 139 230 265l145 -130q-120 -104 -271 -255z" />
<glyph unicode="&#xde;" horiz-adv-x="879" d="M67 80q27 185 54 376q70 497 136 1036l255 18l-32 -230q70 19 135 19q117 0 218 -63q117 -73 117 -267q0 -53 -9 -114l-5 -33q-54 -316 -199.5 -404.5t-361.5 -94.5l-27 -237zM396 551q188 10 237 133q23 56 31 115q5 35 5 70q0 36 -5 72q-15 107 -135 107q-32 0 -71 -8z " />
<glyph unicode="&#xdf;" horiz-adv-x="891" d="M52 85l149 1051q63 373 314 404q68 8 124 8q156 0 231 -62q99 -81 99 -232v-12q-2 -41 -7 -79q-16 -109 -64 -189q-66 -109 -203 -156q142 -22 193 -105q30 -49 30 -129q0 -33 -5 -71q-3 -25 -9 -52q-36 -170 -143.5 -254t-281.5 -115q-51 -9 -102 -14l34 260 q164 3 226 102q35 57 41 103q2 11 2 21q0 32 -17 58q-34 55 -183 55h-26l31 230q122 4 183 110q31 54 38 106q2 16 2 31q0 33 -10 64q-27 88 -120 88h-13q-96 -6 -117 -157q-2 -14 -4 -30l-145 -1030z" />
<glyph unicode="&#xe0;" horiz-adv-x="796" d="M83 296q0 32 5 68q4 28 12 60q53 237 370 237q61 0 133 -9l16 116q4 26 4 47q0 94 -73 94h-4q-7 1 -13 1q-97 0 -119 -158l-2 -15l-235 20q49 349 385 349h21q287 -16 287 -261q0 -33 -5 -70l-100 -710l-233 -4l5 95q-83 -82 -202 -82q-51 0 -108 16q-144 37 -144 206z M340 359q0 -33 23 -59q22 -24 62 -24q51 0 131 40l24 176q-41 9 -76 9q-91 0 -133 -61q-25 -37 -30 -69q-1 -6 -1 -12zM358 1417l183 130q57 -126 154 -265l-137 -120q-108 151 -200 255z" />
<glyph unicode="&#xe1;" horiz-adv-x="796" d="M83 296q0 32 5 68q4 28 12 60q53 237 370 237q61 0 133 -9l16 116q4 26 4 47q0 94 -73 94h-4q-7 1 -13 1q-97 0 -119 -158l-2 -15l-235 20q49 349 385 349h21q287 -16 287 -261q0 -33 -5 -70l-100 -710l-233 -4l5 95q-83 -82 -202 -82q-51 0 -108 16q-144 37 -144 206z M340 359q0 -33 23 -59q22 -24 62 -24q51 0 131 40l24 176q-41 9 -76 9q-91 0 -133 -61q-25 -37 -30 -69q-1 -6 -1 -12zM458 1282q137 139 230 265l145 -130q-120 -104 -272 -255z" />
<glyph unicode="&#xe2;" horiz-adv-x="796" d="M83 296q0 32 5 68q4 28 12 60q53 237 370 237q61 0 133 -9l16 116q4 26 4 47q0 94 -73 94h-4q-7 1 -13 1q-97 0 -119 -158l-2 -15l-235 20q49 349 385 349h21q287 -16 287 -261q0 -33 -5 -70l-100 -710l-233 -4l5 95q-83 -82 -202 -82q-51 0 -108 16q-144 37 -144 206z M265 1201l222 300h240l138 -300h-200l-79 150l-121 -150h-200zM340 359q0 -33 23 -59q22 -24 62 -24q51 0 131 40l24 176q-41 9 -76 9q-91 0 -133 -61q-25 -37 -30 -69q-1 -6 -1 -12z" />
<glyph unicode="&#xe3;" horiz-adv-x="796" d="M83 296q0 32 5 68q4 28 12 60q53 237 370 237q61 0 133 -9l16 116q4 26 4 47q0 94 -73 94h-4q-7 1 -13 1q-97 0 -119 -158l-2 -15l-235 20q49 349 385 349h21q287 -16 287 -261q0 -33 -5 -70l-100 -710l-233 -4l5 95q-83 -82 -202 -82q-51 0 -108 16q-144 37 -144 206z M241 1211q43 300 243 300q100 0 144 -75q37 -62 76 -62q8 0 16 2q47 15 64 135h150q-43 -300 -243 -300q-100 0 -149 75q-41 63 -77 63q-7 0 -15 -3q-42 -15 -59 -135h-150zM340 359q0 -33 23 -59q22 -24 62 -24q51 0 131 40l24 176q-41 9 -76 9q-91 0 -133 -61 q-25 -37 -30 -69q-1 -6 -1 -12z" />
<glyph unicode="&#xe4;" horiz-adv-x="796" d="M83 296q0 32 5 68q4 28 12 60q53 237 370 237q61 0 133 -9l16 116q4 26 4 47q0 94 -73 94h-4q-7 1 -13 1q-97 0 -119 -158l-2 -15l-235 20q49 349 385 349h21q287 -16 287 -261q0 -33 -5 -70l-100 -710l-233 -4l5 95q-83 -82 -202 -82q-51 0 -108 16q-144 37 -144 206z M232 1319q0 11 2 23q8 61 57 104t109 43q61 0 98 -43q30 -35 30 -83q0 -10 -1 -21q-9 -60 -58 -103t-110 -43q-60 0 -97 43q-30 35 -30 80zM340 359q0 -33 23 -59q22 -24 62 -24q51 0 131 40l24 176q-41 9 -76 9q-91 0 -133 -61q-25 -37 -30 -69q-1 -6 -1 -12zM642 1319 q0 11 2 23q8 61 57 104t109 43q61 0 98 -43q30 -35 30 -83q0 -10 -1 -21q-9 -60 -58 -103t-110 -43q-60 0 -97 43q-30 35 -30 80z" />
<glyph unicode="&#xe5;" horiz-adv-x="796" d="M83 296q0 32 5 68q4 28 12 60q53 237 370 237q61 0 133 -9l16 116q4 26 4 47q0 94 -73 94h-4q-7 1 -13 1q-97 0 -119 -158l-2 -15l-235 20q49 349 385 349h21q287 -16 287 -261q0 -33 -5 -70l-100 -710l-233 -4l5 95q-83 -82 -202 -82q-51 0 -108 16q-144 37 -144 206z M340 359q0 -33 23 -59q22 -24 62 -24q51 0 131 40l24 176q-41 9 -76 9q-91 0 -133 -61q-25 -37 -30 -69q-1 -6 -1 -12zM398 1419q0 15 2 31q12 83 78.5 141.5t149.5 58.5t134 -58q40 -48 40 -111q0 -15 -2 -31q-12 -83 -78.5 -141.5t-149.5 -58.5t-133 59q-41 47 -41 110z M517 1437q0 -26 17 -45q20 -24 54 -24t62 24t33 58q1 7 1 13q0 26 -17 46q-21 24 -55 24t-61.5 -24.5t-32.5 -58.5q-1 -7 -1 -13z" />
<glyph unicode="&#xe6;" horiz-adv-x="1220" d="M74 308q0 30 5 63q4 25 11 53q53 237 370 237q61 0 133 -9l16 116q4 26 4 47q0 94 -73 94h-4q-7 1 -13 1q-97 0 -119 -158l-2 -15l-236 20q49 349 385 349h21q158 -10 219 -103q88 74 212 74q293 0 293 -329q0 -60 -10 -132q-8 -56 -22 -120h-447q-10 -69 -10 -119 q0 -138 73 -138h7q88 7 105 133q4 27 5 60l238 5q-53 -381 -388 -387h-6q-146 0 -211 101q-151 -73 -283 -73q-52 0 -101 11q-172 39 -172 219zM330 359q0 -33 23 -59q22 -24 62 -24q51 0 130 40l25 176q-42 9 -77 9q-91 0 -132 -61q-25 -37 -30 -69q-1 -6 -1 -12zM819 680 h226l3 24q5 37 5 66q0 116 -82 116q-111 0 -152 -206z" />
<glyph unicode="&#xe7;" horiz-adv-x="730" d="M96 408q0 69 12 153l5 30q82 516 411 521h8q260 0 260 -256q0 -42 -7 -90l-6 -40l-218 -16l4 24q5 36 5 64q0 118 -83 118q-105 0 -146 -295l-5 -33q-11 -90 -11 -154q0 -165 72 -165h6q88 7 106 133q4 27 5 60l235 -15q-46 -331 -332 -363h8l-21 -89q29 21 62 21 q18 0 37 -6q54 -17 73 -79q7 -26 7 -53q0 -14 -2 -29q-3 -25 -13 -51q-26 -70 -101 -106q-48 -23 -126 -23q-45 0 -101 8l7 119q55 -6 94 -6q63 0 85 15q23 16 26 37q1 4 1 8q0 6 -2 12q-8 27 -38 27q-7 0 -14 -1q-42 -7 -58 -45l-88 9q32 156 50 232q-207 32 -207 324z" />
<glyph unicode="&#xe8;" d="M93 376q0 70 12 155l4 30q82 516 407 516q293 0 293 -329q0 -60 -10 -132q-8 -56 -22 -120h-447q-10 -69 -10 -119q0 -138 73 -138h7q88 7 105 133q4 27 5 60l238 5q-53 -381 -387 -386q-4 -1 -7 -1q-261 0 -261 326zM332 680h226l3 24q5 36 5 64q0 118 -83 118 q-111 0 -151 -206zM332 1407l182 130q57 -126 155 -265l-137 -120q-109 151 -200 255z" />
<glyph unicode="&#xe9;" d="M93 376q0 70 12 155l4 30q82 516 407 516q293 0 293 -329q0 -60 -10 -132q-8 -56 -22 -120h-447q-10 -69 -10 -119q0 -138 73 -138h7q88 7 105 133q4 27 5 60l238 5q-53 -381 -387 -386q-4 -1 -7 -1q-261 0 -261 326zM332 680h226l3 24q5 36 5 64q0 118 -83 118 q-111 0 -151 -206zM431 1272q136 139 229 265l146 -130q-121 -104 -272 -255z" />
<glyph unicode="&#xea;" d="M93 376q0 70 12 155l4 30q82 516 407 516q293 0 293 -329q0 -60 -10 -132q-8 -56 -22 -120h-447q-10 -69 -10 -119q0 -138 73 -138h7q88 7 105 133q4 27 5 60l238 5q-53 -381 -387 -386q-4 -1 -7 -1q-261 0 -261 326zM240 1201l222 300h240l138 -300h-200l-79 150 l-121 -150h-200zM332 680h226l3 24q5 36 5 64q0 118 -83 118q-111 0 -151 -206z" />
<glyph unicode="&#xeb;" d="M93 376q0 70 12 155l4 30q82 516 407 516q293 0 293 -329q0 -60 -10 -132q-8 -56 -22 -120h-447q-10 -69 -10 -119q0 -138 73 -138h7q88 7 105 133q4 27 5 60l238 5q-53 -381 -387 -386q-4 -1 -7 -1q-261 0 -261 326zM207 1319q0 11 2 23q8 61 57 104t109 43q61 0 98 -43 q30 -35 30 -83q0 -10 -1 -21q-9 -60 -58 -103t-110 -43q-60 0 -97 43q-30 35 -30 80zM332 680h226l3 24q5 36 5 64q0 118 -83 118q-111 0 -151 -206zM617 1319q0 11 2 23q8 61 57 104t109 43q61 0 98 -43q30 -35 30 -83q0 -10 -1 -21q-9 -60 -58 -103t-110 -43q-60 0 -97 43 q-30 35 -30 80z" />
<glyph unicode="&#xec;" horiz-adv-x="335" d="M58 45q75 585 135 1011l254 15q-69 -408 -126 -811q-15 -108 -29 -215h-234zM132 1407l183 130q57 -126 154 -265l-136 -120q-109 151 -201 255z" />
<glyph unicode="&#xed;" horiz-adv-x="335" d="M58 45q75 585 135 1011l254 15q-69 -408 -126 -811q-15 -108 -29 -215h-234zM230 1272q137 139 230 265l145 -130q-120 -104 -271 -255z" />
<glyph unicode="&#xee;" horiz-adv-x="335" d="M41 1201l222 300h240l138 -300h-200l-79 150l-121 -150h-200zM59 45q75 585 135 1011l254 15q-70 -408 -126 -811q-15 -108 -29 -215h-234z" />
<glyph unicode="&#xef;" horiz-adv-x="335" d="M8 1321q0 10 1 21q9 61 58 104t109 43q61 0 98 -43q30 -35 30 -81q0 -11 -2 -23q-8 -60 -57 -103t-110 -43q-60 0 -97 43q-30 35 -30 82zM59 45q75 585 135 1011l254 15q-69 -408 -126 -811q-15 -108 -29 -215h-234zM418 1321q0 10 1 21q9 61 58 104t109 43q61 0 98 -43 q30 -35 30 -81q0 -11 -2 -23q-8 -60 -57 -103t-110 -43q-60 0 -97 43q-30 35 -30 82z" />
<glyph unicode="&#xf0;" horiz-adv-x="835" d="M113 411q0 69 12 152q1 10 4 20q72 471 370 471q12 0 25 -1q101 -6 149 -111q13 92 26 198h-129l24 170h125q8 74 17 155h266q-13 -77 -25 -155h117l-24 -170h-119q-25 -170 -50 -347q-50 -355 -99 -741l-237 -1l14 153q-90 -111 -213 -111q-253 0 -253 318zM366 462 q0 -148 73 -158q9 -1 18 -1q80 0 146 106l44 346q-47 79 -108 79q-25 0 -52 -13q-84 -41 -111 -230q-3 -22 -5 -45q-5 -46 -5 -84z" />
<glyph unicode="&#xf1;" horiz-adv-x="786" d="M78 50q65 460 114 1033l187 20l-13 -163q60 130 240 132h4q176 0 220 -138q12 -36 12 -111q0 -117 -30 -329q-23 -170 -67 -402h-242q56 309 80 479q12 85 16 136q1 17 1 32q0 118 -76 118q-86 0 -119 -80l-92 -725zM236 1211q42 300 242 300q100 0 145 -75 q37 -62 76 -62q8 0 15 2q47 15 64 135h150q-42 -300 -242 -300q-100 0 -149 75q-41 63 -77 63q-7 0 -15 -3q-42 -15 -59 -135h-150z" />
<glyph unicode="&#xf2;" d="M93 382q0 69 12 151l4 28q82 516 434 516q285 0 285 -331q0 -64 -11 -141l-6 -38q-86 -511 -435 -516q-4 -1 -8 -1q-275 0 -275 332zM321 390q0 -132 83 -137h7q81 0 126 107q37 89 54 211q4 30 8 61q4 47 4 84q0 89 -24 117q-22 24 -57 24q-20 0 -44 -8 q-66 -22 -109 -163q-25 -84 -37 -169q-8 -57 -11 -115v-12zM341 1407l182 130q57 -126 155 -265l-137 -120q-109 151 -200 255z" />
<glyph unicode="&#xf3;" d="M93 382q0 69 12 151l4 28q82 516 434 516q285 0 285 -331q0 -64 -11 -141l-6 -38q-86 -511 -435 -516q-4 -1 -8 -1q-275 0 -275 332zM321 390q0 -132 83 -137h7q81 0 126 107q37 89 54 211q4 30 8 61q4 47 4 84q0 89 -24 117q-22 24 -57 24q-20 0 -44 -8 q-66 -22 -109 -163q-25 -84 -37 -169q-8 -57 -11 -115v-12zM441 1272q136 139 229 265l146 -130q-121 -104 -272 -255z" />
<glyph unicode="&#xf4;" d="M93 382q0 69 12 151l4 28q82 516 434 516q285 0 285 -331q0 -64 -11 -141l-6 -38q-86 -511 -435 -516q-4 -1 -8 -1q-275 0 -275 332zM250 1201l222 300h240l138 -300h-200l-79 150l-121 -150h-200zM321 390q0 -132 83 -137h7q81 0 126 107q37 89 54 211q4 30 8 61 q4 47 4 84q0 89 -24 117q-22 24 -57 24q-20 0 -44 -8q-66 -22 -109 -163q-25 -84 -37 -169q-8 -57 -11 -115v-12z" />
<glyph unicode="&#xf5;" d="M93 382q0 69 12 151l4 28q82 516 434 516q285 0 285 -331q0 -64 -11 -141l-6 -38q-86 -511 -435 -516q-4 -1 -8 -1q-275 0 -275 332zM226 1211q42 300 242 300q100 0 145 -75q37 -62 76 -62q8 0 15 2q47 15 64 135h150q-42 -300 -242 -300q-100 0 -149 75q-41 63 -77 63 q-7 0 -15 -3q-42 -15 -59 -135h-150zM321 390q0 -132 83 -137h7q81 0 126 107q37 89 54 211q4 30 8 61q4 47 4 84q0 89 -24 117q-22 24 -57 24q-20 0 -44 -8q-66 -22 -109 -163q-25 -84 -37 -169q-8 -57 -11 -115v-12z" />
<glyph unicode="&#xf6;" d="M93 382q0 69 12 151l4 28q82 516 434 516q285 0 285 -331q0 -64 -11 -141l-6 -38q-86 -511 -435 -516q-4 -1 -8 -1q-275 0 -275 332zM217 1319q0 11 2 23q8 61 57 104t109 43q61 0 98 -43q30 -35 30 -83q0 -10 -1 -21q-9 -60 -58 -103t-110 -43q-60 0 -97 43 q-30 35 -30 80zM321 390q0 -132 83 -137h7q81 0 126 107q37 89 54 211q4 30 8 61q4 47 4 84q0 89 -24 117q-22 24 -57 24q-20 0 -44 -8q-66 -22 -109 -163q-25 -84 -37 -169q-8 -57 -11 -115v-12zM627 1319q0 11 2 23q8 61 57 104t109 43q61 0 98 -43q30 -35 30 -83 q0 -10 -1 -21q-9 -60 -58 -103t-110 -43q-60 0 -97 43q-30 35 -30 80z" />
<glyph unicode="&#xf7;" horiz-adv-x="980" d="M127 620l35 250h900l-35 -250h-900zM393 338q0 11 2 23q8 61 57 104t109 43q61 0 98 -43q30 -35 30 -83q0 -10 -1 -21q-9 -60 -58 -103t-110 -43q-60 0 -97 43q-30 35 -30 80zM500 1099q0 11 2 23q8 61 57 104t109 43q61 0 98 -43q30 -35 30 -83q0 -10 -1 -21 q-9 -60 -58 -103t-110 -43q-60 0 -97 43q-30 35 -30 80z" />
<glyph unicode="&#xf8;" d="M93 382q0 67 11 149l4 30q83 516 435 516q21 0 41 -2l49 135l114 -36l-49 -133q129 -73 129 -295q0 -65 -11 -143q-2 -18 -6 -37q-86 -510 -435 -516q-21 0 -42 1l-56 -151l-106 36l52 146q-130 71 -130 300zM321 384q0 -16 1 -30l182 501q-12 -1 -26 -6 q-66 -22 -109 -163q-26 -84 -38 -169q-8 -58 -10 -116v-17zM407 253h3q82 0 126 106q38 89 54 209q5 31 7 64q5 51 5 89q0 30 -3 53z" />
<glyph unicode="&#xf9;" horiz-adv-x="786" d="M105 347q0 124 32 349q25 176 69 415h243q-67 -336 -92 -517q-13 -91 -15 -142q-1 -12 -1 -23q0 -133 80 -133q86 0 119 81l88 694l235 2q-60 -430 -110 -1002l-187 -21l13 163q-60 -130 -244 -131q-2 -1 -3 -1q-182 0 -218 164q-9 37 -9 102zM356 1436l182 130 q58 -126 155 -265l-137 -120q-109 151 -200 255z" />
<glyph unicode="&#xfa;" horiz-adv-x="786" d="M105 347q0 124 32 349q25 176 69 415h243q-67 -336 -92 -517q-13 -91 -15 -142q-1 -12 -1 -23q0 -133 80 -133q86 0 119 81l88 694l235 2q-60 -430 -110 -1002l-187 -21l13 163q-60 -130 -244 -131q-2 -1 -3 -1q-182 0 -218 164q-9 37 -9 102zM456 1301q137 139 229 265 l146 -130q-121 -104 -272 -255z" />
<glyph unicode="&#xfb;" horiz-adv-x="786" d="M105 347q0 124 32 349q25 176 69 415h243q-67 -336 -92 -517q-13 -91 -15 -142q-1 -12 -1 -23q0 -133 80 -133q86 0 119 81l88 694l235 2q-60 -430 -110 -1002l-187 -21l13 163q-60 -130 -244 -131q-2 -1 -3 -1q-182 0 -218 164q-9 37 -9 102zM267 1250l222 300h240 l138 -300h-200l-79 150l-121 -150h-200z" />
<glyph unicode="&#xfc;" horiz-adv-x="786" d="M105 347q0 124 32 349q25 176 69 415h243q-67 -336 -92 -517q-13 -91 -15 -142q-1 -12 -1 -23q0 -133 80 -133q86 0 119 81l88 694l235 2q-60 -430 -110 -1002l-187 -21l13 163q-60 -130 -244 -131q-2 -1 -3 -1q-182 0 -218 164q-9 37 -9 102zM230 1339q0 11 2 23 q8 61 57 104t109 43q61 0 98 -43q30 -35 30 -83q0 -10 -1 -21q-9 -60 -58 -103t-110 -43q-60 0 -97 43q-30 35 -30 80zM640 1339q0 11 2 23q8 61 57 104t109 43q61 0 98 -43q30 -35 30 -83q0 -10 -1 -21q-9 -60 -58 -103t-110 -43q-60 0 -97 43q-30 35 -30 80z" />
<glyph unicode="&#xfd;" horiz-adv-x="803" d="M111 340q0 36 5 77q17 172 74 664l265 21q-52 -300 -79 -494q-10 -73 -16 -131q-6 -48 -6 -85q0 -130 71 -135q6 -1 11 -1q82 0 117 94q20 55 49 261q23 165 51 426l249 18q-39 -305 -70 -524q-38 -273 -64 -412q-45 -250 -196 -380q-137 -118 -354 -118q-25 0 -50 2 l6 244q19 -1 37 -1q168 0 238 59q73 61 92 196l2 16q-70 -90 -188 -90h-14q-128 6 -185 102q-45 73 -45 191zM462 1301q136 139 229 265l146 -130q-121 -104 -272 -255z" />
<glyph unicode="&#xfe;" horiz-adv-x="835" d="M-3 -349q53 337 123 832q63 451 140 1031l243 1l-79 -574q90 112 213 112q251 0 251 -325q0 -72 -12 -160l-3 -20q-75 -486 -374 -486q-12 0 -24 1q-101 5 -149 111q-32 -222 -63 -523h-266zM352 360q47 -79 106 -79q24 0 50 14q78 40 106 239q3 24 6 50q5 54 5 96 q0 151 -66 161q-9 1 -17 1q-76 0 -143 -106z" />
<glyph unicode="&#xff;" horiz-adv-x="803" d="M111 340q0 36 5 77q17 172 74 664l265 21q-52 -300 -79 -494q-10 -73 -16 -131q-6 -48 -6 -85q0 -130 71 -135q6 -1 11 -1q82 0 117 94q20 55 49 261q23 165 51 426l249 18q-39 -305 -70 -524q-38 -273 -64 -412q-45 -250 -196 -380q-137 -118 -354 -118q-25 0 -50 2 l6 244q19 -1 37 -1q168 0 238 59q73 61 92 196l2 16q-70 -90 -188 -90h-14q-128 6 -185 102q-45 73 -45 191zM236 1341q0 10 1 21q9 61 58 104t109 43q61 0 98 -43q30 -35 30 -81q0 -11 -2 -23q-8 -60 -57 -103t-110 -43q-60 0 -97 43q-30 35 -30 82zM646 1341q0 10 1 21 q9 61 58 104t109 43q61 0 98 -43q30 -35 30 -81q0 -11 -2 -23q-8 -60 -57 -103t-110 -43q-60 0 -97 43q-30 35 -30 82z" />
<glyph unicode="&#x152;" horiz-adv-x="1451" d="M130 542q0 127 23 288q98 694 509 694q192 0 232 -259q10 102 20 205q227 9 638 20l-40 -282l-393 16l-46 -328l357 10l-29 -271h-317l-36 -254h415l-40 -284l-691 10q25 139 48 280q-123 -304 -351 -304q-299 0 -299 459zM407 573q0 -223 135 -223q187 0 247 427 q15 109 15 191q0 236 -129 236q-175 0 -248 -427q-5 -26 -8 -50q-12 -87 -12 -154z" />
<glyph unicode="&#x153;" horiz-adv-x="1238" d="M91 365q0 73 13 164l5 32q82 516 389 516q169 0 220 -155q105 155 283 155q293 0 293 -329q0 -60 -10 -132q-8 -56 -22 -120h-447q-10 -69 -10 -119q0 -138 73 -138h7q88 7 105 133q4 27 5 60l238 5q-53 -381 -388 -387h-7q-183 0 -237 161q-102 -158 -271 -161h-6 q-233 0 -233 315zM321 390q0 -132 83 -137h7q81 0 126 107q37 89 54 211q4 30 8 61q4 47 4 84q0 89 -24 117q-22 24 -57 24q-20 0 -44 -8q-66 -22 -109 -163q-25 -84 -37 -169q-8 -57 -11 -115v-12zM817 680h226l3 24q5 36 5 64q0 118 -83 118q-111 0 -151 -206z" />
<glyph unicode="&#x178;" horiz-adv-x="835" d="M171 1479l286 29l113 -558q185 402 291 599h273q-330 -603 -475 -873l-83 -589l-261 -12l98 620q-160 482 -242 784zM340 1779q0 10 1 21q9 61 58 104t109 43q61 0 98 -43q30 -35 30 -81q0 -11 -2 -23q-8 -60 -57 -103t-110 -43q-60 0 -97 43q-30 35 -30 82zM750 1779 q0 10 1 21q9 61 58 104t109 43q61 0 98 -43q30 -35 30 -81q0 -11 -2 -23q-8 -60 -57 -103t-110 -43q-60 0 -97 43q-30 35 -30 82z" />
<glyph unicode="&#x2c6;" horiz-adv-x="690" d="M226 1250l222 300h240l138 -300h-200l-79 150l-121 -150h-200z" />
<glyph unicode="&#x2dc;" horiz-adv-x="740" d="M227 1260q42 300 242 300q100 0 145 -75q37 -62 76 -62q8 0 15 2q47 15 64 135h150q-42 -300 -242 -300q-100 0 -149 75q-42 63 -78 63q-7 0 -14 -3q-42 -15 -59 -135h-150z" />
<glyph unicode="&#x2000;" horiz-adv-x="1004" />
<glyph unicode="&#x2001;" horiz-adv-x="2009" />
<glyph unicode="&#x2002;" horiz-adv-x="1004" />
<glyph unicode="&#x2003;" horiz-adv-x="2009" />
<glyph unicode="&#x2004;" horiz-adv-x="669" />
<glyph unicode="&#x2005;" horiz-adv-x="502" />
<glyph unicode="&#x2006;" horiz-adv-x="334" />
<glyph unicode="&#x2007;" horiz-adv-x="334" />
<glyph unicode="&#x2008;" horiz-adv-x="251" />
<glyph unicode="&#x2009;" horiz-adv-x="401" />
<glyph unicode="&#x200a;" horiz-adv-x="111" />
<glyph unicode="&#x2010;" horiz-adv-x="580" d="M127 620l35 250h500l-35 -250h-500z" />
<glyph unicode="&#x2011;" horiz-adv-x="580" d="M127 620l35 250h500l-35 -250h-500z" />
<glyph unicode="&#x2012;" horiz-adv-x="580" d="M127 620l35 250h500l-35 -250h-500z" />
<glyph unicode="&#x2013;" horiz-adv-x="580" d="M127 620l35 250h500l-35 -250h-500z" />
<glyph unicode="&#x2014;" horiz-adv-x="772" d="M127 620l35 250h700l-35 -250h-700z" />
<glyph unicode="&#x2018;" horiz-adv-x="381" d="M241 1406q0 27 4 51q0 2 1 4q6 41 18 70.5t35.5 55.5t56.5 39q32 12 65 12h3q34 -1 67 -19t47 -52q10 -25 10 -54q0 -13 -2 -26q-6 -45 -35.5 -81t-109.5 -62q5 -91 111 -123l-32 -86q-101 8 -146.5 49.5t-66 87.5t-24.5 97q-2 19 -2 37z" />
<glyph unicode="&#x2019;" horiz-adv-x="381" d="M212 1221q115 32 146 123q-73 26 -92 62q-14 27 -14 60q0 10 1 21q7 45 30.5 79.5t61.5 52.5t74 19h2q33 0 62 -12q29 -13 45 -39t20 -55q1 -14 1 -31q0 -18 -2 -40l-1 -4q-5 -40 -23 -88q-18 -51 -51.5 -97t-91 -87.5t-160.5 -49.5z" />
<glyph unicode="&#x201a;" horiz-adv-x="381" d="M29 -79q115 32 146 123q-73 26 -92 62q-14 27 -14 60q0 10 1 21q7 45 30.5 79.5t61.5 52.5t74 19h2q33 0 62 -12q29 -13 45 -39t20 -55q1 -14 1 -31q0 -18 -2 -40l-1 -4q-5 -40 -23 -88q-18 -51 -51.5 -97t-91 -87.5t-160.5 -49.5z" />
<glyph unicode="&#x201c;" horiz-adv-x="713" d="M234 1356q0 27 4 51q0 2 1 4q6 41 18 70.5t35.5 55.5t56.5 39q32 12 65 12h3q34 -1 67 -19t47 -52q10 -25 10 -54q0 -13 -2 -26q-6 -45 -35.5 -81t-109.5 -62q5 -91 111 -123l-32 -86q-101 8 -146.5 49.5t-66 87.5t-24.5 97q-2 19 -2 37zM581 1406q0 27 4 51q0 2 1 4 q6 41 18 70.5t35.5 55.5t56.5 39q32 12 65 12h3q34 -1 67 -19t47 -52q10 -25 10 -54q0 -13 -2 -26q-6 -45 -35.5 -81t-109.5 -62q5 -91 111 -123l-32 -86q-100 8 -146 49.5t-66.5 87.5t-24.5 97q-2 19 -2 37z" />
<glyph unicode="&#x201d;" horiz-adv-x="713" d="M212 1221q115 32 146 123q-73 26 -92 62q-14 27 -14 60q0 10 1 21q7 45 30.5 79.5t61.5 52.5t74 19h2q33 0 62 -12q29 -13 45 -39t20 -55q1 -14 1 -31q0 -18 -2 -40l-1 -4q-5 -40 -23 -88q-18 -51 -51.5 -97t-91 -87.5t-160.5 -49.5zM545 1171q115 32 146 123 q-73 26 -92 62q-14 27 -14 60q0 10 1 21q7 45 30.5 79.5t61.5 52.5t74 19h2q33 0 62 -12q29 -13 45 -39t20 -55q1 -14 1 -31q0 -18 -2 -40l-1 -4q-5 -40 -23 -88q-18 -51 -51.5 -97t-91 -87.5t-160.5 -49.5z" />
<glyph unicode="&#x201e;" horiz-adv-x="713" d="M25 -109q115 32 146 123q-73 26 -92 62q-14 27 -14 60q0 10 1 21q7 45 30.5 79.5t61.5 52.5t74 19h2q33 0 62 -12q29 -13 45 -39t20 -55q1 -14 1 -31q0 -18 -2 -40l-1 -4q-5 -40 -23 -88q-18 -51 -51.5 -97t-91 -87.5t-160.5 -49.5zM358 -159q115 32 146 123 q-73 26 -92 62q-14 27 -14 60q0 10 1 21q7 45 30.5 79.5t61.5 52.5t74 19h2q33 0 62 -12q29 -13 45 -39t20 -55q1 -14 1 -31q0 -18 -2 -40l-1 -4q-5 -40 -23 -88q-18 -51 -51.5 -97t-91 -87.5t-160.5 -49.5z" />
<glyph unicode="&#x2022;" horiz-adv-x="515" d="M151 635q0 21 3 42q4 26 11 52q24 77 83 136q51 54 141 54q9 0 19 -1q104 -5 136 -57q25 -43 25 -115q0 -16 -1 -33q-1 -21 -4 -41q-9 -70 -36 -120q-36 -65 -121 -88q-38 -11 -74 -11q-45 0 -86 16q-76 29 -90 106q-6 30 -6 60z" />
<glyph unicode="&#x2026;" horiz-adv-x="1150" d="M65 170q0 10 1 21q9 61 58 104t109 43q61 0 98 -43q30 -35 30 -81q0 -11 -2 -23q-8 -60 -57 -103t-110 -43q-60 0 -97 43q-30 35 -30 82zM448 170q0 10 1 21q9 61 58 104t109 43q61 0 98 -43q30 -35 30 -81q0 -11 -2 -23q-8 -60 -57 -103t-110 -43q-60 0 -97 43 q-30 35 -30 82zM831 170q0 10 1 21q9 61 58 104t109 43q61 0 98 -43q30 -35 30 -81q0 -11 -2 -23q-8 -60 -57 -103t-110 -43q-60 0 -97 43q-30 35 -30 82z" />
<glyph unicode="&#x202f;" horiz-adv-x="401" />
<glyph unicode="&#x2039;" horiz-adv-x="540" d="M148 700l286 400h220l-256 -400l144 -400h-220z" />
<glyph unicode="&#x203a;" horiz-adv-x="540" d="M92 300l256 400l-144 400h220l174 -400l-286 -400h-220z" />
<glyph unicode="&#x205f;" horiz-adv-x="502" />
<glyph unicode="&#x20ac;" horiz-adv-x="1039" d="M112 510l24 170h144q5 56 13 118l2 12h-141l24 170h148q122 542 465 542q315 0 315 -346q0 -63 -10 -138q-4 -29 -9 -60l-222 -1l3 27q7 47 7 84q0 151 -107 151q-108 0 -169 -259h229l-54 -170h-206l-1 -5q-9 -67 -14 -125h180l-54 -170h-133q8 -194 100 -194h1 q149 1 182 240l14 99h248l-10 -75q-70 -498 -483 -522q-12 -1 -23 -1q-303 0 -304 453h-159z" />
<glyph unicode="&#x2122;" horiz-adv-x="1080" d="M245 1390l17 120h400l-17 -120h-140l-53 -380h-120l53 380h-140zM642 1010l70 500h160l68 -300l152 300h160l-70 -500h-120l42 300l-142 -300h-100l-58 300l-42 -300h-120z" />
<glyph unicode="&#xe000;" horiz-adv-x="1100" d="M0 0v1100h1100v-1100h-1100z" />
</font>
</defs>
</svg>
